<svg xmlns="http://www.w3.org/2000/svg" xmlns:xlink="http://www.w3.org/1999/xlink" fill="#9966cc" xmlns:fi="http://pattern.flaticon.com/" x="0" y="0" width="700" height="350" viewBox="0 0 2450 1225"><rect x="0px" y="0px" width="100%" height="100%" opacity="1" fill="#cc9860"/><defs><g transform="matrix(0.19058738091369334 0.06629126463458149 -0.06629126463458149 0.19058738091369334 123.18019423254736 25.239066739641643)" id="L1_0"><path d="M473.6,0H38.4C17.229,0,0,17.229,0,38.4v435.2C0,494.771,17.229,512,38.4,512h435.2c21.171,0,38.4-17.229,38.4-38.4V38.4    C512,17.229,494.771,0,473.6,0z M494.933,473.6c0,11.767-9.566,21.333-21.333,21.333H38.4c-11.759,0-21.333-9.566-21.333-21.333    V38.4c0-11.768,9.574-21.333,21.333-21.333h435.2c11.759,0,21.333,9.566,21.333,21.333V473.6z"/><path d="M76.8,34.133H42.667c-4.71,0-8.533,3.814-8.533,8.533V76.8c0,4.719,3.823,8.533,8.533,8.533H76.8    c4.71,0,8.533-3.814,8.533-8.533V42.667C85.333,37.948,81.51,34.133,76.8,34.133z M68.267,68.267H51.2V51.2h17.067V68.267z"/><path d="M145.067,34.133h-34.133c-4.71,0-8.533,3.814-8.533,8.533V76.8c0,4.719,3.823,8.533,8.533,8.533h34.133    c4.71,0,8.533-3.814,8.533-8.533V42.667C153.6,37.948,149.777,34.133,145.067,34.133z M136.533,68.267h-17.067V51.2h17.067V68.267    z"/><path d="M213.333,34.133H179.2c-4.71,0-8.533,3.814-8.533,8.533V76.8c0,4.719,3.823,8.533,8.533,8.533h34.133    c4.71,0,8.533-3.814,8.533-8.533V42.667C221.867,37.948,218.044,34.133,213.333,34.133z M204.8,68.267h-17.067V51.2H204.8V68.267z    "/><path d="M473.6,0H38.4C17.229,0,0,17.229,0,38.4v72.533c0,4.719,3.823,8.533,8.533,8.533h494.933c4.71,0,8.533-3.814,8.533-8.533    V38.4C512,17.229,494.771,0,473.6,0z M494.933,102.4H17.067v-64c0-11.768,9.574-21.333,21.333-21.333h435.2    c11.759,0,21.333,9.566,21.333,21.333V102.4z"/><path d="M469.333,136.533H42.667c-4.71,0-8.533,3.814-8.533,8.533v324.267c0,4.719,3.823,8.533,8.533,8.533h426.667    c4.71,0,8.533-3.814,8.533-8.533V145.067C477.867,140.348,474.044,136.533,469.333,136.533z M460.8,460.8H51.2V153.6h409.6V460.8z    "/><path d="M290.133,281.6c4.71,0,8.533-3.814,8.533-8.533v-17.024c0-14.14-11.503-25.643-25.643-25.643h-34.057    c-14.131,0-25.634,11.503-25.634,25.643v34.048c0,14.14,11.503,25.643,25.634,25.643h34.065c4.727,0,8.568,3.84,8.568,8.567    v34.057c0,4.727-3.849,8.576-8.576,8.576h-34.057c-4.719,0-8.567-3.849-8.567-8.576v-17.024c0-4.719-3.823-8.533-8.533-8.533    c-4.71,0-8.533,3.814-8.533,8.533v17.024c0,14.14,11.503,25.643,25.634,25.643h34.057c14.14,0,25.643-11.503,25.643-25.643    v-34.057c0-14.131-11.503-25.634-25.634-25.634h-34.065c-4.719,0-8.567-3.849-8.567-8.576v-34.048    c0-4.727,3.849-8.576,8.567-8.576h34.057c4.727,0,8.576,3.849,8.576,8.576v17.024C281.6,277.786,285.423,281.6,290.133,281.6z"/><path d="M401.067,281.6c4.71,0,8.533-3.814,8.533-8.533v-17.024c0-14.14-11.503-25.643-25.643-25.643h-34.057    c-14.131,0-25.634,11.503-25.634,25.643v34.048c0,14.14,11.503,25.643,25.634,25.643h34.065c4.727,0,8.567,3.84,8.567,8.567    v34.057c0,4.727-3.849,8.576-8.576,8.576h-34.057c-4.719,0-8.567-3.849-8.567-8.576v-17.024c0-4.719-3.823-8.533-8.533-8.533    c-4.71,0-8.533,3.814-8.533,8.533v17.024c0,14.14,11.503,25.643,25.634,25.643h34.057c14.14,0,25.643-11.503,25.643-25.643    v-34.057c0-14.131-11.503-25.634-25.634-25.634h-34.065c-4.719,0-8.567-3.849-8.567-8.576v-34.048    c0-4.727,3.849-8.576,8.567-8.576h34.057c4.727,0,8.576,3.849,8.576,8.576v17.024C392.533,277.786,396.356,281.6,401.067,281.6z"/><path d="M179.2,290.133c4.71,0,8.533-3.814,8.533-8.533v-25.609c0-14.106-11.477-25.591-25.591-25.591h-34.15    c-14.114,0-25.591,11.486-25.591,25.591v102.417c0,14.106,11.477,25.591,25.591,25.591h34.15    c14.114,0,25.591-11.486,25.591-25.591V332.8c0-4.719-3.823-8.533-8.533-8.533s-8.533,3.814-8.533,8.533v25.609    c0,4.702-3.823,8.525-8.525,8.525h-34.15c-4.702,0-8.525-3.823-8.525-8.525V255.991c0-4.702,3.823-8.525,8.525-8.525h34.15    c4.702,0,8.525,3.823,8.525,8.525V281.6C170.667,286.319,174.49,290.133,179.2,290.133z"/><path d="M435.2,196.267H76.8c-4.71,0-8.533,3.814-8.533,8.533v204.8c0,4.719,3.823,8.533,8.533,8.533h358.4    c4.71,0,8.533-3.814,8.533-8.533V204.8C443.733,200.081,439.91,196.267,435.2,196.267z M426.667,401.067H85.333V213.333h341.333    V401.067z"/></g><g transform="matrix(0.08706493841654497 -0.014042731681779216 0.014042731681779216 0.08706493841654497 218.116436454829 302.3063150759)" id="L1_1"><path d="M477.858,8.533H34.142C15.317,8.533,0,23.851,0,42.675v281.591c0,4.71,3.823,8.533,8.533,8.533h494.933    c4.71,0,8.533-3.823,8.533-8.533V42.675C512,23.851,496.683,8.533,477.858,8.533z M494.933,315.733H17.067V42.675    c0-9.421,7.663-17.075,17.075-17.075h443.716c9.412,0,17.075,7.654,17.075,17.075V315.733z"/><path d="M503.467,315.733H8.533c-4.71,0-8.533,3.823-8.533,8.533v42.658c0,18.825,15.317,34.142,34.142,34.142h443.716    c18.825,0,34.142-15.317,34.142-34.142v-42.658C512,319.556,508.177,315.733,503.467,315.733z M494.933,366.925    c0,9.421-7.663,17.075-17.075,17.075H34.142c-9.412,0-17.075-7.654-17.075-17.075V332.8h477.867V366.925z"/><path d="M281.6,349.867h-51.2c-4.71,0-8.533,3.823-8.533,8.533s3.823,8.533,8.533,8.533h51.2c4.71,0,8.533-3.823,8.533-8.533    S286.31,349.867,281.6,349.867z"/><path d="M469.333,42.667H42.667c-4.71,0-8.533,3.823-8.533,8.533v273.067c0,4.71,3.823,8.533,8.533,8.533h426.667    c4.71,0,8.533-3.823,8.533-8.533V51.2C477.867,46.49,474.044,42.667,469.333,42.667z M460.8,315.733H51.2v-256h409.6V315.733z"/><path d="M366.933,452.267H145.067c-14.114,0-25.6,11.486-25.6,25.6s11.486,25.6,25.6,25.6h221.867c14.114,0,25.6-11.486,25.6-25.6    S381.047,452.267,366.933,452.267z M366.933,486.4H145.067c-4.71,0-8.533-3.831-8.533-8.533s3.823-8.533,8.533-8.533h221.867    c4.71,0,8.533,3.831,8.533,8.533S371.644,486.4,366.933,486.4z"/><path d="M349.867,452.267c-28.314,0-42.667-20.096-42.667-59.733c0-4.71-3.823-8.533-8.533-8.533h-85.333    c-4.71,0-8.533,3.823-8.533,8.533c0,39.637-14.353,59.733-42.667,59.733c-4.71,0-8.533,3.823-8.533,8.533    c0,4.71,3.823,8.533,8.533,8.533h187.733c4.71,0,8.533-3.823,8.533-8.533C358.4,456.09,354.577,452.267,349.867,452.267z     M203.699,452.267c10.505-11.639,16.691-28.971,17.937-51.2h68.736c1.237,22.229,7.424,39.561,17.937,51.2H203.699z"/><path d="M256,76.8c-61.167,0-110.933,49.766-110.933,110.933S194.833,298.667,256,298.667S366.933,248.9,366.933,187.733    S317.167,76.8,256,76.8z M256,281.6c-51.755,0-93.867-42.112-93.867-93.867S204.245,93.867,256,93.867    c51.755,0,93.867,42.112,93.867,93.867S307.755,281.6,256,281.6z"/><path d="M199.799,187.733l19.567-19.567c3.337-3.336,3.337-8.73,0-12.066c-3.328-3.337-8.738-3.337-12.066,0l-25.6,25.6    c-3.337,3.337-3.337,8.73,0,12.066l25.6,25.6c1.664,1.664,3.849,2.5,6.033,2.5c2.185,0,4.369-0.836,6.033-2.5    c3.337-3.337,3.337-8.73,0-12.066L199.799,187.733z"/><path d="M330.3,181.7l-25.6-25.6c-3.328-3.337-8.738-3.337-12.066,0c-3.337,3.337-3.337,8.73,0,12.066l19.567,19.567    L292.634,207.3c-3.337,3.336-3.337,8.73,0,12.066c1.664,1.664,3.849,2.5,6.033,2.5c2.185,0,4.369-0.836,6.033-2.5l25.6-25.6    C333.636,190.43,333.636,185.037,330.3,181.7z"/><path d="M275.763,128.435c-4.446-1.485-9.301,0.93-10.795,5.393l-34.133,102.4c-1.485,4.471,0.93,9.301,5.402,10.795    c0.887,0.299,1.801,0.444,2.697,0.444c3.575,0,6.903-2.261,8.098-5.837l34.133-102.4    C282.65,134.758,280.235,129.929,275.763,128.435z"/><path d="M110.933,76.8H76.8c-4.71,0-8.533,3.823-8.533,8.533v34.133c0,4.71,3.823,8.533,8.533,8.533s8.533-3.823,8.533-8.533    v-25.6h25.6c4.71,0,8.533-3.823,8.533-8.533S115.644,76.8,110.933,76.8z"/><path d="M435.2,247.467c-4.71,0-8.533,3.823-8.533,8.533v25.6h-25.6c-4.71,0-8.533,3.823-8.533,8.533s3.823,8.533,8.533,8.533    H435.2c4.71,0,8.533-3.823,8.533-8.533V256C443.733,251.29,439.91,247.467,435.2,247.467z"/></g><g transform="matrix(0.1171875 0 0 0.1171875 228 173)" id="L1_2"><path d="M477.858,8.533H34.142C15.317,8.533,0,23.851,0,42.675v281.591c0,4.71,3.823,8.533,8.533,8.533h494.933    c4.71,0,8.533-3.823,8.533-8.533V42.675C512,23.851,496.683,8.533,477.858,8.533z M494.933,315.733H17.067V42.675    c0-9.421,7.663-17.075,17.075-17.075h443.716c9.412,0,17.075,7.654,17.075,17.075V315.733z"/><path d="M503.467,315.733H8.533c-4.71,0-8.533,3.823-8.533,8.533v42.658c0,18.825,15.317,34.142,34.142,34.142h443.716    c18.825,0,34.142-15.317,34.142-34.142v-42.658C512,319.556,508.177,315.733,503.467,315.733z M494.933,366.925    c0,9.421-7.663,17.075-17.075,17.075H34.142c-9.412,0-17.075-7.654-17.075-17.075V332.8h477.867V366.925z"/><path d="M281.6,349.867h-51.2c-4.71,0-8.533,3.823-8.533,8.533s3.823,8.533,8.533,8.533h51.2c4.71,0,8.533-3.823,8.533-8.533    S286.31,349.867,281.6,349.867z"/><path d="M469.333,42.667H42.667c-4.71,0-8.533,3.823-8.533,8.533v273.067c0,4.71,3.823,8.533,8.533,8.533h426.667    c4.71,0,8.533-3.823,8.533-8.533V51.2C477.867,46.49,474.044,42.667,469.333,42.667z M460.8,315.733H51.2v-256h409.6V315.733z"/><path d="M366.933,452.267H145.067c-14.114,0-25.6,11.486-25.6,25.6s11.486,25.6,25.6,25.6h221.867c14.114,0,25.6-11.486,25.6-25.6    S381.047,452.267,366.933,452.267z M366.933,486.4H145.067c-4.71,0-8.533-3.831-8.533-8.533s3.823-8.533,8.533-8.533h221.867    c4.71,0,8.533,3.831,8.533,8.533S371.644,486.4,366.933,486.4z"/><path d="M349.867,452.267c-28.314,0-42.667-20.096-42.667-59.733c0-4.71-3.823-8.533-8.533-8.533h-85.333    c-4.71,0-8.533,3.823-8.533,8.533c0,39.637-14.353,59.733-42.667,59.733c-4.71,0-8.533,3.823-8.533,8.533    c0,4.71,3.823,8.533,8.533,8.533h187.733c4.71,0,8.533-3.823,8.533-8.533C358.4,456.09,354.577,452.267,349.867,452.267z     M203.699,452.267c10.505-11.639,16.691-28.971,17.937-51.2h68.736c1.237,22.229,7.424,39.561,17.937,51.2H203.699z"/><path d="M256,76.8c-61.167,0-110.933,49.766-110.933,110.933S194.833,298.667,256,298.667S366.933,248.9,366.933,187.733    S317.167,76.8,256,76.8z M256,281.6c-51.755,0-93.867-42.112-93.867-93.867S204.245,93.867,256,93.867    c51.755,0,93.867,42.112,93.867,93.867S307.755,281.6,256,281.6z"/><path d="M199.799,187.733l19.567-19.567c3.337-3.336,3.337-8.73,0-12.066c-3.328-3.337-8.738-3.337-12.066,0l-25.6,25.6    c-3.337,3.337-3.337,8.73,0,12.066l25.6,25.6c1.664,1.664,3.849,2.5,6.033,2.5c2.185,0,4.369-0.836,6.033-2.5    c3.337-3.337,3.337-8.73,0-12.066L199.799,187.733z"/><path d="M330.3,181.7l-25.6-25.6c-3.328-3.337-8.738-3.337-12.066,0c-3.337,3.337-3.337,8.73,0,12.066l19.567,19.567    L292.634,207.3c-3.337,3.336-3.337,8.73,0,12.066c1.664,1.664,3.849,2.5,6.033,2.5c2.185,0,4.369-0.836,6.033-2.5l25.6-25.6    C333.636,190.43,333.636,185.037,330.3,181.7z"/><path d="M275.763,128.435c-4.446-1.485-9.301,0.93-10.795,5.393l-34.133,102.4c-1.485,4.471,0.93,9.301,5.402,10.795    c0.887,0.299,1.801,0.444,2.697,0.444c3.575,0,6.903-2.261,8.098-5.837l34.133-102.4    C282.65,134.758,280.235,129.929,275.763,128.435z"/><path d="M110.933,76.8H76.8c-4.71,0-8.533,3.823-8.533,8.533v34.133c0,4.71,3.823,8.533,8.533,8.533s8.533-3.823,8.533-8.533    v-25.6h25.6c4.71,0,8.533-3.823,8.533-8.533S115.644,76.8,110.933,76.8z"/><path d="M435.2,247.467c-4.71,0-8.533,3.823-8.533,8.533v25.6h-25.6c-4.71,0-8.533,3.823-8.533,8.533s3.823,8.533,8.533,8.533    H435.2c4.71,0,8.533-3.823,8.533-8.533V256C443.733,251.29,439.91,247.467,435.2,247.467z"/></g><g transform="matrix(0.07594673417915568 0.02204905303700462 -0.02204905303700462 0.07594673417915568 95.20219362760933 199.91307847266296)"><path d="M477.858,8.533H34.142C15.317,8.533,0,23.851,0,42.675v281.591c0,4.71,3.823,8.533,8.533,8.533h494.933    c4.71,0,8.533-3.823,8.533-8.533V42.675C512,23.851,496.683,8.533,477.858,8.533z M494.933,315.733H17.067V42.675    c0-9.421,7.663-17.075,17.075-17.075h443.716c9.412,0,17.075,7.654,17.075,17.075V315.733z"/><path d="M503.467,315.733H8.533c-4.71,0-8.533,3.823-8.533,8.533v42.658c0,18.825,15.317,34.142,34.142,34.142h443.716    c18.825,0,34.142-15.317,34.142-34.142v-42.658C512,319.556,508.177,315.733,503.467,315.733z M494.933,366.925    c0,9.421-7.663,17.075-17.075,17.075H34.142c-9.412,0-17.075-7.654-17.075-17.075V332.8h477.867V366.925z"/><path d="M281.6,349.867h-51.2c-4.71,0-8.533,3.823-8.533,8.533s3.823,8.533,8.533,8.533h51.2c4.71,0,8.533-3.823,8.533-8.533    S286.31,349.867,281.6,349.867z"/><path d="M469.333,42.667H42.667c-4.71,0-8.533,3.823-8.533,8.533v273.067c0,4.71,3.823,8.533,8.533,8.533h426.667    c4.71,0,8.533-3.823,8.533-8.533V51.2C477.867,46.49,474.044,42.667,469.333,42.667z M460.8,315.733H51.2v-256h409.6V315.733z"/><path d="M366.933,452.267H145.067c-14.114,0-25.6,11.486-25.6,25.6s11.486,25.6,25.6,25.6h221.867c14.114,0,25.6-11.486,25.6-25.6    S381.047,452.267,366.933,452.267z M366.933,486.4H145.067c-4.71,0-8.533-3.831-8.533-8.533s3.823-8.533,8.533-8.533h221.867    c4.71,0,8.533,3.831,8.533,8.533S371.644,486.4,366.933,486.4z"/><path d="M349.867,452.267c-28.314,0-42.667-20.096-42.667-59.733c0-4.71-3.823-8.533-8.533-8.533h-85.333    c-4.71,0-8.533,3.823-8.533,8.533c0,39.637-14.353,59.733-42.667,59.733c-4.71,0-8.533,3.823-8.533,8.533    c0,4.71,3.823,8.533,8.533,8.533h187.733c4.71,0,8.533-3.823,8.533-8.533C358.4,456.09,354.577,452.267,349.867,452.267z     M203.699,452.267c10.505-11.639,16.691-28.971,17.937-51.2h68.736c1.237,22.229,7.424,39.561,17.937,51.2H203.699z"/><path d="M256,76.8c-61.167,0-110.933,49.766-110.933,110.933S194.833,298.667,256,298.667S366.933,248.9,366.933,187.733    S317.167,76.8,256,76.8z M256,281.6c-51.755,0-93.867-42.112-93.867-93.867S204.245,93.867,256,93.867    c51.755,0,93.867,42.112,93.867,93.867S307.755,281.6,256,281.6z"/><path d="M199.799,187.733l19.567-19.567c3.337-3.336,3.337-8.73,0-12.066c-3.328-3.337-8.738-3.337-12.066,0l-25.6,25.6    c-3.337,3.337-3.337,8.73,0,12.066l25.6,25.6c1.664,1.664,3.849,2.5,6.033,2.5c2.185,0,4.369-0.836,6.033-2.5    c3.337-3.337,3.337-8.73,0-12.066L199.799,187.733z"/><path d="M330.3,181.7l-25.6-25.6c-3.328-3.337-8.738-3.337-12.066,0c-3.337,3.337-3.337,8.73,0,12.066l19.567,19.567    L292.634,207.3c-3.337,3.336-3.337,8.73,0,12.066c1.664,1.664,3.849,2.5,6.033,2.5c2.185,0,4.369-0.836,6.033-2.5l25.6-25.6    C333.636,190.43,333.636,185.037,330.3,181.7z"/><path d="M275.763,128.435c-4.446-1.485-9.301,0.93-10.795,5.393l-34.133,102.4c-1.485,4.471,0.93,9.301,5.402,10.795    c0.887,0.299,1.801,0.444,2.697,0.444c3.575,0,6.903-2.261,8.098-5.837l34.133-102.4    C282.65,134.758,280.235,129.929,275.763,128.435z"/><path d="M110.933,76.8H76.8c-4.71,0-8.533,3.823-8.533,8.533v34.133c0,4.71,3.823,8.533,8.533,8.533s8.533-3.823,8.533-8.533    v-25.6h25.6c4.71,0,8.533-3.823,8.533-8.533S115.644,76.8,110.933,76.8z"/><path d="M435.2,247.467c-4.71,0-8.533,3.823-8.533,8.533v25.6h-25.6c-4.71,0-8.533,3.823-8.533,8.533s3.823,8.533,8.533,8.533    H435.2c4.71,0,8.533-3.823,8.533-8.533V256C443.733,251.29,439.91,247.467,435.2,247.467z"/></g><g transform="matrix(0.14529860752508014 0.06393138749187885 -0.06393138749187885 0.14529860752508014 -11.829977112001732 252.4371123343832)" id="L1_4"><path d="M433.886,144.397c0.87-5.385,1.314-10.726,1.314-15.957c0-56.465-45.935-102.4-102.4-102.4    c-44.134,0-82.372,22.349-98.347,56.508c-12.911-5.308-24.806-5.308-38.187-5.308c-53.7,0-97.877,41.549-102.076,94.191    C41.557,175.629,0,219.806,0,273.506c0,56.465,45.935,102.4,102.4,102.4h34.133c4.71,0,8.533-3.814,8.533-8.533    s-3.823-8.533-8.533-8.533H102.4c-47.053,0-85.333-38.281-85.333-85.333c0-47.053,38.281-85.333,85.333-85.333    c4.71,0,8.533-3.814,8.533-8.533c0-47.053,38.281-85.333,85.333-85.333c16.99,0,26.402,0.324,38.34,7.347    c2.219,1.297,4.907,1.527,7.322,0.64c2.415-0.905,4.292-2.85,5.103-5.291c10.573-31.727,45.841-53.897,85.768-53.897    c47.053,0,85.333,38.281,85.333,85.333c0,6.391-0.802,13.022-2.389,19.712c-1.05,4.403,1.536,8.866,5.879,10.146    c43.17,12.774,73.31,53.137,73.31,98.142c0,56.465-45.935,102.4-102.4,102.4h-25.6c-4.71,0-8.533,3.814-8.533,8.533    s3.823,8.533,8.533,8.533h25.6c65.877,0,119.467-53.589,119.467-119.467C512,206.545,480.247,161.549,433.886,144.397z"/><path d="M148.949,180.57c-12.638-6.451-27.435-9.463-46.549-9.463c-4.71,0-8.533,3.814-8.533,8.533s3.823,8.533,8.533,8.533    c16.316,0,28.638,2.415,38.784,7.603c1.237,0.631,2.569,0.93,3.874,0.93c3.106,0,6.101-1.698,7.603-4.651    C154.812,187.857,153.148,182.711,148.949,180.57z"/><path d="M256,230.839c-47.053,0-85.333,38.281-85.333,85.333s38.281,85.333,85.333,85.333s85.333-38.281,85.333-85.333    S303.053,230.839,256,230.839z M256,384.439c-37.641,0-68.267-30.626-68.267-68.267c0-37.641,30.626-68.267,68.267-68.267    c37.641,0,68.267,30.626,68.267,68.267C324.267,353.813,293.641,384.439,256,384.439z"/><path d="M350.293,406.071l-36.634-36.625c-3.328-3.337-8.73-3.337-12.066,0c-3.337,3.337-3.337,8.73,0,12.066l36.634,36.625    c1.664,1.664,3.849,2.5,6.033,2.5c2.185,0,4.369-0.828,6.033-2.5C353.63,414.801,353.63,409.408,350.293,406.071z"/><path d="M410.633,442.278l-48.273-48.273c-3.2-3.208-8.866-3.2-12.066,0l-24.132,24.141c-3.336,3.337-3.336,8.73,0,12.066    l48.273,48.265c4.983,4.992,11.546,7.484,18.099,7.484c6.554,0,13.116-2.492,18.099-7.484    C420.608,468.493,420.608,452.262,410.633,442.278z M398.566,466.411c-3.319,3.337-8.738,3.337-12.066,0l-42.24-42.232    l12.066-12.075l42.24,42.24C401.894,457.673,401.894,463.083,398.566,466.411z"/><path d="M256,264.973c-28.228,0-51.2,22.963-51.2,51.2c0,4.719,3.823,8.533,8.533,8.533c4.71,0,8.533-3.814,8.533-8.533    c0-18.825,15.309-34.133,34.133-34.133c4.71,0,8.533-3.814,8.533-8.533S260.71,264.973,256,264.973z"/></g><g transform="matrix(0.159828461604008 -0.06974333145390882 0.06974333145390882 0.159828461604008 229.2295885574216 33.938199508964125)"><path d="M433.886,144.397c0.87-5.385,1.314-10.726,1.314-15.957c0-56.465-45.935-102.4-102.4-102.4    c-44.134,0-82.372,22.349-98.347,56.508c-12.911-5.308-24.806-5.308-38.187-5.308c-53.7,0-97.877,41.549-102.076,94.191    C41.557,175.629,0,219.806,0,273.506c0,56.465,45.935,102.4,102.4,102.4h34.133c4.71,0,8.533-3.814,8.533-8.533    s-3.823-8.533-8.533-8.533H102.4c-47.053,0-85.333-38.281-85.333-85.333c0-47.053,38.281-85.333,85.333-85.333    c4.71,0,8.533-3.814,8.533-8.533c0-47.053,38.281-85.333,85.333-85.333c16.99,0,26.402,0.324,38.34,7.347    c2.219,1.297,4.907,1.527,7.322,0.64c2.415-0.905,4.292-2.85,5.103-5.291c10.573-31.727,45.841-53.897,85.768-53.897    c47.053,0,85.333,38.281,85.333,85.333c0,6.391-0.802,13.022-2.389,19.712c-1.05,4.403,1.536,8.866,5.879,10.146    c43.17,12.774,73.31,53.137,73.31,98.142c0,56.465-45.935,102.4-102.4,102.4h-25.6c-4.71,0-8.533,3.814-8.533,8.533    s3.823,8.533,8.533,8.533h25.6c65.877,0,119.467-53.589,119.467-119.467C512,206.545,480.247,161.549,433.886,144.397z"/><path d="M148.949,180.57c-12.638-6.451-27.435-9.463-46.549-9.463c-4.71,0-8.533,3.814-8.533,8.533s3.823,8.533,8.533,8.533    c16.316,0,28.638,2.415,38.784,7.603c1.237,0.631,2.569,0.93,3.874,0.93c3.106,0,6.101-1.698,7.603-4.651    C154.812,187.857,153.148,182.711,148.949,180.57z"/><path d="M256,230.839c-47.053,0-85.333,38.281-85.333,85.333s38.281,85.333,85.333,85.333s85.333-38.281,85.333-85.333    S303.053,230.839,256,230.839z M256,384.439c-37.641,0-68.267-30.626-68.267-68.267c0-37.641,30.626-68.267,68.267-68.267    c37.641,0,68.267,30.626,68.267,68.267C324.267,353.813,293.641,384.439,256,384.439z"/><path d="M350.293,406.071l-36.634-36.625c-3.328-3.337-8.73-3.337-12.066,0c-3.337,3.337-3.337,8.73,0,12.066l36.634,36.625    c1.664,1.664,3.849,2.5,6.033,2.5c2.185,0,4.369-0.828,6.033-2.5C353.63,414.801,353.63,409.408,350.293,406.071z"/><path d="M410.633,442.278l-48.273-48.273c-3.2-3.208-8.866-3.2-12.066,0l-24.132,24.141c-3.336,3.337-3.336,8.73,0,12.066    l48.273,48.265c4.983,4.992,11.546,7.484,18.099,7.484c6.554,0,13.116-2.492,18.099-7.484    C420.608,468.493,420.608,452.262,410.633,442.278z M398.566,466.411c-3.319,3.337-8.738,3.337-12.066,0l-42.24-42.232    l12.066-12.075l42.24,42.24C401.894,457.673,401.894,463.083,398.566,466.411z"/><path d="M256,264.973c-28.228,0-51.2,22.963-51.2,51.2c0,4.719,3.823,8.533,8.533,8.533c4.71,0,8.533-3.814,8.533-8.533    c0-18.825,15.309-34.133,34.133-34.133c4.71,0,8.533-3.814,8.533-8.533S260.71,264.973,256,264.973z"/></g></defs><g fi:class="KUsePattern"><pattern id="pattern_L1_0" width="350" height="350" patternUnits="userSpaceOnUse"><use xlink:href="#L1_0" x="-350" y="-350"/><use xlink:href="#L1_0" x="0" y="-350"/><use xlink:href="#L1_0" x="350" y="-350"/><use xlink:href="#L1_0" x="-350" y="0"/><use xlink:href="#L1_0" x="0" y="0"/><use xlink:href="#L1_0" x="350" y="0"/><use xlink:href="#L1_0" x="-350" y="350"/><use xlink:href="#L1_0" x="0" y="350"/><use xlink:href="#L1_0" x="350" y="350"/></pattern><rect x="0" y="0" width="100%" height="100%" fill="url(#pattern_L1_0)"/></g><g fi:class="KUsePattern"><pattern id="pattern_L1_1" width="350" height="350" patternUnits="userSpaceOnUse"><use xlink:href="#L1_1" x="-350" y="-350"/><use xlink:href="#L1_1" x="0" y="-350"/><use xlink:href="#L1_1" x="350" y="-350"/><use xlink:href="#L1_1" x="-350" y="0"/><use xlink:href="#L1_1" x="0" y="0"/><use xlink:href="#L1_1" x="350" y="0"/><use xlink:href="#L1_1" x="-350" y="350"/><use xlink:href="#L1_1" x="0" y="350"/><use xlink:href="#L1_1" x="350" y="350"/></pattern><rect x="0" y="0" width="100%" height="100%" fill="url(#pattern_L1_1)"/></g><g fi:class="KUsePattern"><pattern id="pattern_L1_2" width="350" height="350" patternUnits="userSpaceOnUse"><use xlink:href="#L1_2" x="-350" y="-350"/><use xlink:href="#L1_2" x="0" y="-350"/><use xlink:href="#L1_2" x="350" y="-350"/><use xlink:href="#L1_2" x="-350" y="0"/><use xlink:href="#L1_2" x="0" y="0"/><use xlink:href="#L1_2" x="350" y="0"/><use xlink:href="#L1_2" x="-350" y="350"/><use xlink:href="#L1_2" x="0" y="350"/><use xlink:href="#L1_2" x="350" y="350"/></pattern><rect x="0" y="0" width="100%" height="100%" fill="url(#pattern_L1_2)"/></g><g fi:class="KUsePattern" transform="matrix(1 0 0 1 20 20)"><pattern id="pattern_UNKNOWN" width="350" height="350" patternUnits="userSpaceOnUse"><use xlink:href="#UNKNOWN" x="-350" y="-350"/><use xlink:href="#UNKNOWN" x="0" y="-350"/><use xlink:href="#UNKNOWN" x="350" y="-350"/><use xlink:href="#UNKNOWN" x="-350" y="0"/><use xlink:href="#UNKNOWN" x="0" y="0"/><use xlink:href="#UNKNOWN" x="350" y="0"/><use xlink:href="#UNKNOWN" x="-350" y="350"/><use xlink:href="#UNKNOWN" x="0" y="350"/><use xlink:href="#UNKNOWN" x="350" y="350"/></pattern><rect x="0" y="0" width="100%" height="100%" fill="url(#pattern_UNKNOWN)"/></g><g fi:class="KUsePattern"><pattern id="pattern_L1_4" width="350" height="350" patternUnits="userSpaceOnUse"><use xlink:href="#L1_4" x="-350" y="-350"/><use xlink:href="#L1_4" x="0" y="-350"/><use xlink:href="#L1_4" x="350" y="-350"/><use xlink:href="#L1_4" x="-350" y="0"/><use xlink:href="#L1_4" x="0" y="0"/><use xlink:href="#L1_4" x="350" y="0"/><use xlink:href="#L1_4" x="-350" y="350"/><use xlink:href="#L1_4" x="0" y="350"/><use xlink:href="#L1_4" x="350" y="350"/></pattern><rect x="0" y="0" width="100%" height="100%" fill="url(#pattern_L1_4)"/></g><g fi:class="KUsePattern" transform="matrix(1 0 0 1 20 20)"><pattern id="pattern_UNKNOWN" width="350" height="350" patternUnits="userSpaceOnUse"><use xlink:href="#UNKNOWN" x="-350" y="-350"/><use xlink:href="#UNKNOWN" x="0" y="-350"/><use xlink:href="#UNKNOWN" x="350" y="-350"/><use xlink:href="#UNKNOWN" x="-350" y="0"/><use xlink:href="#UNKNOWN" x="0" y="0"/><use xlink:href="#UNKNOWN" x="350" y="0"/><use xlink:href="#UNKNOWN" x="-350" y="350"/><use xlink:href="#UNKNOWN" x="0" y="350"/><use xlink:href="#UNKNOWN" x="350" y="350"/></pattern><rect x="0" y="0" width="100%" height="100%" fill="url(#pattern_UNKNOWN)"/></g></svg>