<svg xmlns="http://www.w3.org/2000/svg" xmlns:xlink="http://www.w3.org/1999/xlink" fill="#cc99cc" xmlns:fi="http://pattern.flaticon.com/" x="0" y="0" width="700" height="350" viewBox="0 0 2450 1225"><rect x="0px" y="0px" width="100%" height="100%" opacity="1" fill="#99666a"/><defs><g transform="matrix(0.256882890301409 -0.1381090785251457 0.1381090785251457 0.256882890301409 211.88199061596484 103.59386460966572)" id="L1_6"><path d="M299.716,203.383l-5.376-0.674c-13.807-1.732-25.259-10.428-29.884-22.707c-0.802-2.116-1.673-4.224-2.594-6.315    c-5.53-12.424-3.456-27.221,5.41-38.613l2.714-3.49c2.637-3.405,2.33-8.235-0.708-11.273l-14.148-14.148    c-3.046-3.038-7.885-3.337-11.281-0.7l-3.482,2.705c-11.392,8.866-26.189,10.94-38.613,5.41c-2.082-0.93-4.198-1.792-6.323-2.594    c-12.271-4.617-20.975-16.068-22.699-29.884l-0.674-5.376c-0.529-4.275-4.164-7.475-8.465-7.475h-20.011    c-4.301,0-7.936,3.209-8.465,7.475l-0.674,5.376c-1.732,13.807-10.428,25.259-22.699,29.884c-2.133,0.802-4.241,1.664-6.323,2.594    c-12.425,5.504-27.23,3.447-38.613-5.41l-3.482-2.714c-3.396-2.654-8.235-2.347-11.273,0.7l-14.148,14.148    c-3.046,3.046-3.354,7.876-0.708,11.273l2.722,3.49c8.866,11.401,10.931,26.189,5.41,38.622c-0.93,2.082-1.792,4.19-2.594,6.315    c-4.625,12.271-16.077,20.966-29.884,22.699l-5.376,0.674C3.209,203.904,0,207.539,0,211.84v20.011    c0,4.301,3.209,7.936,7.475,8.465l5.367,0.674c13.815,1.732,25.267,10.428,29.892,22.707c0.802,2.116,1.664,4.224,2.594,6.315    c5.53,12.425,3.456,27.221-5.41,38.613l-2.705,3.49c-2.637,3.405-2.338,8.235,0.708,11.273l14.148,14.148    c3.046,3.055,7.876,3.354,11.273,0.708l3.482-2.705c11.392-8.866,26.189-10.94,38.613-5.41c2.091,0.93,4.198,1.792,6.323,2.594    c12.271,4.617,20.966,16.068,22.699,29.884l0.674,5.376c0.529,4.275,4.164,7.475,8.465,7.475h20.011    c4.309,0,7.936-3.2,8.465-7.467l0.674-5.376c1.724-13.807,10.428-25.259,22.699-29.884c2.133-0.802,4.241-1.664,6.323-2.594    c12.425-5.521,27.23-3.465,38.622,5.41l3.465,2.705c3.396,2.637,8.226,2.33,11.273-0.708l14.148-14.148    c3.046-3.046,3.354-7.876,0.708-11.273l-2.714-3.49c-8.866-11.401-10.94-26.189-5.41-38.622c0.93-2.082,1.792-4.19,2.594-6.315    c4.625-12.271,16.077-20.966,29.884-22.699l5.376-0.674c4.275-0.529,7.475-4.164,7.475-8.465v-20.011    C307.191,207.548,303.983,203.913,299.716,203.383z M290.133,224.367c-19.174,3.123-35.021,15.735-41.634,33.314    c-0.683,1.826-1.425,3.627-2.219,5.41c-7.68,17.271-5.47,37.504,5.675,53.513l-3.61,3.61    c-16.009-11.145-36.241-13.355-53.521-5.675c-1.775,0.794-3.576,1.527-5.393,2.21c-17.587,6.622-30.191,22.46-33.314,41.643    h-5.026c-3.115-19.183-15.727-35.021-33.306-41.643c-1.818-0.683-3.618-1.417-5.402-2.21c-17.28-7.689-37.504-5.47-53.513,5.675    l-3.618-3.61c11.145-16.009,13.363-36.241,5.683-53.504c-0.794-1.792-1.527-3.593-2.219-5.41    c-6.622-17.579-22.46-30.191-41.643-33.314v-5.018c19.183-3.123,35.021-15.735,41.643-33.314c0.683-1.826,1.425-3.627,2.219-5.41    c7.671-17.271,5.461-37.504-5.683-53.513l3.61-3.61c16.009,11.145,36.241,13.355,53.513,5.675c1.783-0.794,3.575-1.527,5.393-2.21    c17.587-6.622,30.199-22.46,33.314-41.643h5.026c3.115,19.174,15.727,35.021,33.314,41.643c1.818,0.683,3.618,1.416,5.402,2.21    c17.271,7.68,37.504,5.461,53.513-5.675l3.618,3.61c-11.153,16.009-13.363,36.241-5.683,53.504    c0.794,1.792,1.536,3.593,2.219,5.41c6.622,17.579,22.46,30.191,41.643,33.314V224.367z"/><path d="M504.533,367.292l-4.429-0.555c-10.812-1.357-19.78-8.149-23.39-17.724c-0.666-1.784-1.391-3.541-2.167-5.299    c-4.318-9.719-2.688-21.316,4.267-30.259l2.236-2.867c2.645-3.396,2.338-8.235-0.7-11.273l-11.657-11.648    c-3.038-3.046-7.868-3.345-11.264-0.708l-2.876,2.236c-8.943,6.955-20.54,8.585-30.268,4.267    c-1.749-0.777-3.516-1.493-5.291-2.167c-9.583-3.61-16.375-12.57-17.724-23.381l-0.555-4.429    c-0.529-4.275-4.164-7.475-8.465-7.475h-16.478c-4.309,0-7.945,3.2-8.474,7.475l-0.546,4.429    c-1.357,10.812-8.149,19.78-17.732,23.39c-1.775,0.674-3.533,1.391-5.282,2.167c-9.737,4.309-21.325,2.688-30.276-4.275    l-2.867-2.227c-3.396-2.637-8.226-2.321-11.264,0.708l-11.648,11.648c-3.046,3.038-3.354,7.876-0.708,11.273l2.236,2.867    c6.963,8.943,8.593,20.54,4.267,30.268c-0.768,1.749-1.493,3.507-2.159,5.282c-3.618,9.583-12.578,16.375-23.398,17.732    l-4.429,0.555c-4.275,0.529-7.475,4.164-7.475,8.465v16.478c0,4.301,3.209,7.936,7.475,8.465l4.429,0.555    c10.82,1.357,19.78,8.149,23.39,17.724c0.666,1.784,1.391,3.541,2.167,5.299c4.326,9.719,2.688,21.316-4.267,30.259l-2.236,2.867    c-2.637,3.396-2.338,8.235,0.708,11.273l11.648,11.648c3.046,3.038,7.868,3.345,11.264,0.708l2.876-2.236    c8.943-6.955,20.54-8.585,30.268-4.267c1.741,0.777,3.507,1.493,5.282,2.167c9.583,3.61,16.375,12.57,17.732,23.381l0.546,4.429    c0.538,4.275,4.173,7.475,8.474,7.475h16.478c4.301,0,7.927-3.2,8.474-7.467l0.546-4.429c1.357-10.82,8.149-19.789,17.741-23.398    c1.775-0.674,3.541-1.391,5.282-2.167c9.719-4.326,21.316-2.697,30.268,4.275l2.867,2.227c3.396,2.637,8.226,2.33,11.264-0.708    l11.657-11.648c3.038-3.038,3.345-7.876,0.7-11.273l-2.236-2.867c-6.955-8.943-8.593-20.54-4.267-30.268    c0.777-1.749,1.502-3.507,2.167-5.282c3.61-9.583,12.57-16.375,23.39-17.732l4.429-0.555c4.267-0.529,7.467-4.164,7.467-8.465    v-16.478C512,371.456,508.8,367.821,504.533,367.292z M494.933,384.794c-15.753,2.995-28.698,13.577-34.202,28.177    c-0.546,1.468-1.143,2.927-1.783,4.361c-6.374,14.336-4.753,31.044,4.104,44.493l-1.22,1.22    c-13.44-8.858-30.157-10.479-44.493-4.104c-1.442,0.64-2.901,1.237-4.361,1.783c-14.601,5.504-25.173,18.441-28.169,34.202h-1.604    c-2.995-15.761-13.568-28.698-28.177-34.193c-1.476-0.555-2.927-1.152-4.369-1.792c-14.336-6.374-31.053-4.753-44.493,4.104    l-1.22-1.22c8.858-13.44,10.479-30.157,4.104-44.484c-0.64-1.442-1.237-2.901-1.792-4.378    c-5.504-14.601-18.449-25.173-34.202-28.169v-1.604c15.761-2.995,28.698-13.577,34.202-28.177    c0.555-1.468,1.152-2.927,1.792-4.361c6.374-14.336,4.753-31.044-4.104-44.493l1.22-1.22c13.44,8.858,30.157,10.479,44.493,4.105    c1.442-0.631,2.901-1.229,4.369-1.784c14.601-5.504,25.173-18.44,28.169-34.202h1.604c2.995,15.753,13.577,28.698,28.169,34.193    c1.468,0.555,2.927,1.152,4.369,1.792c14.336,6.374,31.053,4.753,44.493-4.105l1.22,1.22c-8.858,13.44-10.479,30.157-4.104,44.484    c0.64,1.442,1.237,2.901,1.792,4.378c5.495,14.601,18.44,25.173,34.193,28.169V384.794z"/><path d="M153.609,162.125c-32.939,0-59.733,26.795-59.733,59.733c0,32.939,26.795,59.733,59.733,59.733    s59.733-26.795,59.733-59.733C213.342,188.919,186.547,162.125,153.609,162.125z M153.609,264.525    c-23.526,0-42.667-19.14-42.667-42.667c0-23.526,19.14-42.667,42.667-42.667c23.526,0,42.667,19.14,42.667,42.667    C196.275,245.385,177.135,264.525,153.609,264.525z"/><path d="M504.525,95.403l-3.797-0.478c-8.687-1.092-16.162-6.75-19.055-14.421c-0.589-1.545-1.212-3.081-1.886-4.591    c-3.524-7.927-2.185-17.391,3.499-24.695l1.92-2.458c2.645-3.396,2.347-8.226-0.7-11.273l-9.984-9.984    c-3.046-3.046-7.876-3.345-11.273-0.708l-2.466,1.92c-7.313,5.683-16.777,7.04-24.695,3.507c-1.527-0.683-3.063-1.314-4.599-1.886    c-7.791-2.935-13.32-10.24-14.421-19.055l-0.469-3.797c-0.538-4.267-4.173-7.475-8.474-7.475h-14.123    c-4.301,0-7.936,3.208-8.465,7.475l-0.469,3.789c-1.092,8.687-6.75,16.171-14.404,19.055c-1.562,0.589-3.098,1.212-4.617,1.894    c-7.919,3.516-17.391,2.185-24.704-3.507l-2.466-1.911c-3.396-2.637-8.226-2.33-11.264,0.708l-9.984,9.984    c-3.046,3.046-3.345,7.876-0.7,11.273l1.911,2.458c5.683,7.313,7.031,16.777,3.507,24.695c-0.674,1.519-1.297,3.046-1.886,4.599    c-2.884,7.663-10.359,13.329-19.055,14.413l-3.797,0.478c-4.275,0.529-7.475,4.164-7.475,8.465v14.123    c0,4.301,3.208,7.936,7.475,8.465l3.797,0.478c8.695,1.092,16.171,6.75,19.063,14.421c0.589,1.544,1.212,3.081,1.886,4.591    c3.524,7.927,2.176,17.391-3.507,24.695l-1.911,2.458c-2.645,3.396-2.347,8.226,0.7,11.273l9.984,9.984    c3.046,3.046,7.876,3.354,11.273,0.708l2.466-1.92c7.313-5.683,16.777-7.023,24.695-3.507c1.527,0.683,3.063,1.314,4.599,1.886    c7.791,2.935,13.312,10.24,14.413,19.055l0.478,3.797c0.529,4.267,4.164,7.475,8.465,7.475h14.123    c4.309,0,7.945-3.209,8.448-7.475l0.469-3.789c1.109-8.823,6.63-16.128,14.404-19.055c1.562-0.589,3.098-1.212,4.617-1.894    c7.927-3.524,17.399-2.185,24.704,3.507l2.466,1.911c3.396,2.637,8.235,2.33,11.273-0.708l9.984-9.984    c3.046-3.046,3.345-7.876,0.7-11.273l-1.911-2.458c-5.683-7.313-7.031-16.777-3.507-24.695c0.674-1.519,1.306-3.046,1.886-4.599    c2.893-7.663,10.368-13.329,19.063-14.413l3.797-0.478c4.267-0.529,7.467-4.164,7.467-8.465v-14.123    C511.992,99.567,508.792,95.932,504.525,95.403z M465.715,135.322c-0.461,1.237-0.973,2.466-1.51,3.686    c-5.367,12.058-4.326,26.018,2.534,37.572c-11.563-6.861-25.515-7.902-37.589-2.534c-1.203,0.538-2.423,1.041-3.669,1.51    c-12.186,4.599-21.205,15.044-24.405,27.904c-3.2-12.868-12.22-23.313-24.422-27.913c-1.229-0.461-2.449-0.964-3.661-1.502    c-5.154-2.287-10.65-3.413-16.162-3.413c-7.39,0-14.797,2.022-21.41,5.948c6.861-11.563,7.902-25.515,2.534-37.581    c-0.546-1.22-1.041-2.441-1.51-3.678c-4.591-12.194-15.036-21.205-27.904-24.405c12.868-3.191,23.313-12.211,27.904-24.397    c0.461-1.237,0.964-2.466,1.51-3.686c5.367-12.058,4.326-26.018-2.534-37.572c11.554,6.869,25.515,7.893,37.589,2.534    c1.203-0.538,2.423-1.041,3.669-1.51c12.186-4.599,21.197-15.044,24.397-27.904c3.2,12.868,12.22,23.313,24.422,27.913    c1.229,0.461,2.449,0.964,3.661,1.502c12.058,5.367,26.018,4.318,37.572-2.534c-6.861,11.563-7.893,25.515-2.534,37.581    c0.546,1.22,1.05,2.44,1.51,3.678c4.599,12.194,15.044,21.205,27.913,24.405C480.751,114.116,470.306,123.136,465.715,135.322z"/><path d="M384.009,332.791c-28.228,0-51.2,22.963-51.2,51.2c0,28.237,22.972,51.2,51.2,51.2c28.228,0,51.2-22.963,51.2-51.2    C435.209,355.755,412.245,332.791,384.009,332.791z M384.009,418.125c-18.825,0-34.133-15.309-34.133-34.133    c0-18.825,15.309-34.133,34.133-34.133c18.816,0,34.133,15.309,34.133,34.133C418.142,402.816,402.833,418.125,384.009,418.125z"/><path d="M401.075,76.791c-18.825,0-34.133,15.309-34.133,34.133s15.309,34.133,34.133,34.133    c18.816,0,34.133-15.309,34.133-34.133S419.9,76.791,401.075,76.791z M401.075,127.991c-9.412,0-17.067-7.654-17.067-17.067    c0-9.412,7.654-17.067,17.067-17.067c9.412,0,17.067,7.654,17.067,17.067C418.142,120.337,410.487,127.991,401.075,127.991z"/></g><g transform="matrix(-0.23769211769104004 0 0 0.23769211769104004 317.84918096361093 219.15077885982998)"><path d="M299.716,203.383l-5.376-0.674c-13.807-1.732-25.259-10.428-29.884-22.707c-0.802-2.116-1.673-4.224-2.594-6.315    c-5.53-12.424-3.456-27.221,5.41-38.613l2.714-3.49c2.637-3.405,2.33-8.235-0.708-11.273l-14.148-14.148    c-3.046-3.038-7.885-3.337-11.281-0.7l-3.482,2.705c-11.392,8.866-26.189,10.94-38.613,5.41c-2.082-0.93-4.198-1.792-6.323-2.594    c-12.271-4.617-20.975-16.068-22.699-29.884l-0.674-5.376c-0.529-4.275-4.164-7.475-8.465-7.475h-20.011    c-4.301,0-7.936,3.209-8.465,7.475l-0.674,5.376c-1.732,13.807-10.428,25.259-22.699,29.884c-2.133,0.802-4.241,1.664-6.323,2.594    c-12.425,5.504-27.23,3.447-38.613-5.41l-3.482-2.714c-3.396-2.654-8.235-2.347-11.273,0.7l-14.148,14.148    c-3.046,3.046-3.354,7.876-0.708,11.273l2.722,3.49c8.866,11.401,10.931,26.189,5.41,38.622c-0.93,2.082-1.792,4.19-2.594,6.315    c-4.625,12.271-16.077,20.966-29.884,22.699l-5.376,0.674C3.209,203.904,0,207.539,0,211.84v20.011    c0,4.301,3.209,7.936,7.475,8.465l5.367,0.674c13.815,1.732,25.267,10.428,29.892,22.707c0.802,2.116,1.664,4.224,2.594,6.315    c5.53,12.425,3.456,27.221-5.41,38.613l-2.705,3.49c-2.637,3.405-2.338,8.235,0.708,11.273l14.148,14.148    c3.046,3.055,7.876,3.354,11.273,0.708l3.482-2.705c11.392-8.866,26.189-10.94,38.613-5.41c2.091,0.93,4.198,1.792,6.323,2.594    c12.271,4.617,20.966,16.068,22.699,29.884l0.674,5.376c0.529,4.275,4.164,7.475,8.465,7.475h20.011    c4.309,0,7.936-3.2,8.465-7.467l0.674-5.376c1.724-13.807,10.428-25.259,22.699-29.884c2.133-0.802,4.241-1.664,6.323-2.594    c12.425-5.521,27.23-3.465,38.622,5.41l3.465,2.705c3.396,2.637,8.226,2.33,11.273-0.708l14.148-14.148    c3.046-3.046,3.354-7.876,0.708-11.273l-2.714-3.49c-8.866-11.401-10.94-26.189-5.41-38.622c0.93-2.082,1.792-4.19,2.594-6.315    c4.625-12.271,16.077-20.966,29.884-22.699l5.376-0.674c4.275-0.529,7.475-4.164,7.475-8.465v-20.011    C307.191,207.548,303.983,203.913,299.716,203.383z M290.133,224.367c-19.174,3.123-35.021,15.735-41.634,33.314    c-0.683,1.826-1.425,3.627-2.219,5.41c-7.68,17.271-5.47,37.504,5.675,53.513l-3.61,3.61    c-16.009-11.145-36.241-13.355-53.521-5.675c-1.775,0.794-3.576,1.527-5.393,2.21c-17.587,6.622-30.191,22.46-33.314,41.643    h-5.026c-3.115-19.183-15.727-35.021-33.306-41.643c-1.818-0.683-3.618-1.417-5.402-2.21c-17.28-7.689-37.504-5.47-53.513,5.675    l-3.618-3.61c11.145-16.009,13.363-36.241,5.683-53.504c-0.794-1.792-1.527-3.593-2.219-5.41    c-6.622-17.579-22.46-30.191-41.643-33.314v-5.018c19.183-3.123,35.021-15.735,41.643-33.314c0.683-1.826,1.425-3.627,2.219-5.41    c7.671-17.271,5.461-37.504-5.683-53.513l3.61-3.61c16.009,11.145,36.241,13.355,53.513,5.675c1.783-0.794,3.575-1.527,5.393-2.21    c17.587-6.622,30.199-22.46,33.314-41.643h5.026c3.115,19.174,15.727,35.021,33.314,41.643c1.818,0.683,3.618,1.416,5.402,2.21    c17.271,7.68,37.504,5.461,53.513-5.675l3.618,3.61c-11.153,16.009-13.363,36.241-5.683,53.504    c0.794,1.792,1.536,3.593,2.219,5.41c6.622,17.579,22.46,30.191,41.643,33.314V224.367z"/><path d="M504.533,367.292l-4.429-0.555c-10.812-1.357-19.78-8.149-23.39-17.724c-0.666-1.784-1.391-3.541-2.167-5.299    c-4.318-9.719-2.688-21.316,4.267-30.259l2.236-2.867c2.645-3.396,2.338-8.235-0.7-11.273l-11.657-11.648    c-3.038-3.046-7.868-3.345-11.264-0.708l-2.876,2.236c-8.943,6.955-20.54,8.585-30.268,4.267    c-1.749-0.777-3.516-1.493-5.291-2.167c-9.583-3.61-16.375-12.57-17.724-23.381l-0.555-4.429    c-0.529-4.275-4.164-7.475-8.465-7.475h-16.478c-4.309,0-7.945,3.2-8.474,7.475l-0.546,4.429    c-1.357,10.812-8.149,19.78-17.732,23.39c-1.775,0.674-3.533,1.391-5.282,2.167c-9.737,4.309-21.325,2.688-30.276-4.275    l-2.867-2.227c-3.396-2.637-8.226-2.321-11.264,0.708l-11.648,11.648c-3.046,3.038-3.354,7.876-0.708,11.273l2.236,2.867    c6.963,8.943,8.593,20.54,4.267,30.268c-0.768,1.749-1.493,3.507-2.159,5.282c-3.618,9.583-12.578,16.375-23.398,17.732    l-4.429,0.555c-4.275,0.529-7.475,4.164-7.475,8.465v16.478c0,4.301,3.209,7.936,7.475,8.465l4.429,0.555    c10.82,1.357,19.78,8.149,23.39,17.724c0.666,1.784,1.391,3.541,2.167,5.299c4.326,9.719,2.688,21.316-4.267,30.259l-2.236,2.867    c-2.637,3.396-2.338,8.235,0.708,11.273l11.648,11.648c3.046,3.038,7.868,3.345,11.264,0.708l2.876-2.236    c8.943-6.955,20.54-8.585,30.268-4.267c1.741,0.777,3.507,1.493,5.282,2.167c9.583,3.61,16.375,12.57,17.732,23.381l0.546,4.429    c0.538,4.275,4.173,7.475,8.474,7.475h16.478c4.301,0,7.927-3.2,8.474-7.467l0.546-4.429c1.357-10.82,8.149-19.789,17.741-23.398    c1.775-0.674,3.541-1.391,5.282-2.167c9.719-4.326,21.316-2.697,30.268,4.275l2.867,2.227c3.396,2.637,8.226,2.33,11.264-0.708    l11.657-11.648c3.038-3.038,3.345-7.876,0.7-11.273l-2.236-2.867c-6.955-8.943-8.593-20.54-4.267-30.268    c0.777-1.749,1.502-3.507,2.167-5.282c3.61-9.583,12.57-16.375,23.39-17.732l4.429-0.555c4.267-0.529,7.467-4.164,7.467-8.465    v-16.478C512,371.456,508.8,367.821,504.533,367.292z M494.933,384.794c-15.753,2.995-28.698,13.577-34.202,28.177    c-0.546,1.468-1.143,2.927-1.783,4.361c-6.374,14.336-4.753,31.044,4.104,44.493l-1.22,1.22    c-13.44-8.858-30.157-10.479-44.493-4.104c-1.442,0.64-2.901,1.237-4.361,1.783c-14.601,5.504-25.173,18.441-28.169,34.202h-1.604    c-2.995-15.761-13.568-28.698-28.177-34.193c-1.476-0.555-2.927-1.152-4.369-1.792c-14.336-6.374-31.053-4.753-44.493,4.104    l-1.22-1.22c8.858-13.44,10.479-30.157,4.104-44.484c-0.64-1.442-1.237-2.901-1.792-4.378    c-5.504-14.601-18.449-25.173-34.202-28.169v-1.604c15.761-2.995,28.698-13.577,34.202-28.177    c0.555-1.468,1.152-2.927,1.792-4.361c6.374-14.336,4.753-31.044-4.104-44.493l1.22-1.22c13.44,8.858,30.157,10.479,44.493,4.105    c1.442-0.631,2.901-1.229,4.369-1.784c14.601-5.504,25.173-18.44,28.169-34.202h1.604c2.995,15.753,13.577,28.698,28.169,34.193    c1.468,0.555,2.927,1.152,4.369,1.792c14.336,6.374,31.053,4.753,44.493-4.105l1.22,1.22c-8.858,13.44-10.479,30.157-4.104,44.484    c0.64,1.442,1.237,2.901,1.792,4.378c5.495,14.601,18.44,25.173,34.193,28.169V384.794z"/><path d="M153.609,162.125c-32.939,0-59.733,26.795-59.733,59.733c0,32.939,26.795,59.733,59.733,59.733    s59.733-26.795,59.733-59.733C213.342,188.919,186.547,162.125,153.609,162.125z M153.609,264.525    c-23.526,0-42.667-19.14-42.667-42.667c0-23.526,19.14-42.667,42.667-42.667c23.526,0,42.667,19.14,42.667,42.667    C196.275,245.385,177.135,264.525,153.609,264.525z"/><path d="M504.525,95.403l-3.797-0.478c-8.687-1.092-16.162-6.75-19.055-14.421c-0.589-1.545-1.212-3.081-1.886-4.591    c-3.524-7.927-2.185-17.391,3.499-24.695l1.92-2.458c2.645-3.396,2.347-8.226-0.7-11.273l-9.984-9.984    c-3.046-3.046-7.876-3.345-11.273-0.708l-2.466,1.92c-7.313,5.683-16.777,7.04-24.695,3.507c-1.527-0.683-3.063-1.314-4.599-1.886    c-7.791-2.935-13.32-10.24-14.421-19.055l-0.469-3.797c-0.538-4.267-4.173-7.475-8.474-7.475h-14.123    c-4.301,0-7.936,3.208-8.465,7.475l-0.469,3.789c-1.092,8.687-6.75,16.171-14.404,19.055c-1.562,0.589-3.098,1.212-4.617,1.894    c-7.919,3.516-17.391,2.185-24.704-3.507l-2.466-1.911c-3.396-2.637-8.226-2.33-11.264,0.708l-9.984,9.984    c-3.046,3.046-3.345,7.876-0.7,11.273l1.911,2.458c5.683,7.313,7.031,16.777,3.507,24.695c-0.674,1.519-1.297,3.046-1.886,4.599    c-2.884,7.663-10.359,13.329-19.055,14.413l-3.797,0.478c-4.275,0.529-7.475,4.164-7.475,8.465v14.123    c0,4.301,3.208,7.936,7.475,8.465l3.797,0.478c8.695,1.092,16.171,6.75,19.063,14.421c0.589,1.544,1.212,3.081,1.886,4.591    c3.524,7.927,2.176,17.391-3.507,24.695l-1.911,2.458c-2.645,3.396-2.347,8.226,0.7,11.273l9.984,9.984    c3.046,3.046,7.876,3.354,11.273,0.708l2.466-1.92c7.313-5.683,16.777-7.023,24.695-3.507c1.527,0.683,3.063,1.314,4.599,1.886    c7.791,2.935,13.312,10.24,14.413,19.055l0.478,3.797c0.529,4.267,4.164,7.475,8.465,7.475h14.123    c4.309,0,7.945-3.209,8.448-7.475l0.469-3.789c1.109-8.823,6.63-16.128,14.404-19.055c1.562-0.589,3.098-1.212,4.617-1.894    c7.927-3.524,17.399-2.185,24.704,3.507l2.466,1.911c3.396,2.637,8.235,2.33,11.273-0.708l9.984-9.984    c3.046-3.046,3.345-7.876,0.7-11.273l-1.911-2.458c-5.683-7.313-7.031-16.777-3.507-24.695c0.674-1.519,1.306-3.046,1.886-4.599    c2.893-7.663,10.368-13.329,19.063-14.413l3.797-0.478c4.267-0.529,7.467-4.164,7.467-8.465v-14.123    C511.992,99.567,508.792,95.932,504.525,95.403z M465.715,135.322c-0.461,1.237-0.973,2.466-1.51,3.686    c-5.367,12.058-4.326,26.018,2.534,37.572c-11.563-6.861-25.515-7.902-37.589-2.534c-1.203,0.538-2.423,1.041-3.669,1.51    c-12.186,4.599-21.205,15.044-24.405,27.904c-3.2-12.868-12.22-23.313-24.422-27.913c-1.229-0.461-2.449-0.964-3.661-1.502    c-5.154-2.287-10.65-3.413-16.162-3.413c-7.39,0-14.797,2.022-21.41,5.948c6.861-11.563,7.902-25.515,2.534-37.581    c-0.546-1.22-1.041-2.441-1.51-3.678c-4.591-12.194-15.036-21.205-27.904-24.405c12.868-3.191,23.313-12.211,27.904-24.397    c0.461-1.237,0.964-2.466,1.51-3.686c5.367-12.058,4.326-26.018-2.534-37.572c11.554,6.869,25.515,7.893,37.589,2.534    c1.203-0.538,2.423-1.041,3.669-1.51c12.186-4.599,21.197-15.044,24.397-27.904c3.2,12.868,12.22,23.313,24.422,27.913    c1.229,0.461,2.449,0.964,3.661,1.502c12.058,5.367,26.018,4.318,37.572-2.534c-6.861,11.563-7.893,25.515-2.534,37.581    c0.546,1.22,1.05,2.44,1.51,3.678c4.599,12.194,15.044,21.205,27.913,24.405C480.751,114.116,470.306,123.136,465.715,135.322z"/><path d="M384.009,332.791c-28.228,0-51.2,22.963-51.2,51.2c0,28.237,22.972,51.2,51.2,51.2c28.228,0,51.2-22.963,51.2-51.2    C435.209,355.755,412.245,332.791,384.009,332.791z M384.009,418.125c-18.825,0-34.133-15.309-34.133-34.133    c0-18.825,15.309-34.133,34.133-34.133c18.816,0,34.133,15.309,34.133,34.133C418.142,402.816,402.833,418.125,384.009,418.125z"/><path d="M401.075,76.791c-18.825,0-34.133,15.309-34.133,34.133s15.309,34.133,34.133,34.133    c18.816,0,34.133-15.309,34.133-34.133S419.9,76.791,401.075,76.791z M401.075,127.991c-9.412,0-17.067-7.654-17.067-17.067    c0-9.412,7.654-17.067,17.067-17.067c9.412,0,17.067,7.654,17.067,17.067C418.142,120.337,410.487,127.991,401.075,127.991z"/></g><g transform="matrix(0.2126879981538606 0.12706036088116152 -0.12706036088116152 0.2126879981538606 92.07938424509697 -33.97559865184017)"><path d="M299.716,203.383l-5.376-0.674c-13.807-1.732-25.259-10.428-29.884-22.707c-0.802-2.116-1.673-4.224-2.594-6.315    c-5.53-12.424-3.456-27.221,5.41-38.613l2.714-3.49c2.637-3.405,2.33-8.235-0.708-11.273l-14.148-14.148    c-3.046-3.038-7.885-3.337-11.281-0.7l-3.482,2.705c-11.392,8.866-26.189,10.94-38.613,5.41c-2.082-0.93-4.198-1.792-6.323-2.594    c-12.271-4.617-20.975-16.068-22.699-29.884l-0.674-5.376c-0.529-4.275-4.164-7.475-8.465-7.475h-20.011    c-4.301,0-7.936,3.209-8.465,7.475l-0.674,5.376c-1.732,13.807-10.428,25.259-22.699,29.884c-2.133,0.802-4.241,1.664-6.323,2.594    c-12.425,5.504-27.23,3.447-38.613-5.41l-3.482-2.714c-3.396-2.654-8.235-2.347-11.273,0.7l-14.148,14.148    c-3.046,3.046-3.354,7.876-0.708,11.273l2.722,3.49c8.866,11.401,10.931,26.189,5.41,38.622c-0.93,2.082-1.792,4.19-2.594,6.315    c-4.625,12.271-16.077,20.966-29.884,22.699l-5.376,0.674C3.209,203.904,0,207.539,0,211.84v20.011    c0,4.301,3.209,7.936,7.475,8.465l5.367,0.674c13.815,1.732,25.267,10.428,29.892,22.707c0.802,2.116,1.664,4.224,2.594,6.315    c5.53,12.425,3.456,27.221-5.41,38.613l-2.705,3.49c-2.637,3.405-2.338,8.235,0.708,11.273l14.148,14.148    c3.046,3.055,7.876,3.354,11.273,0.708l3.482-2.705c11.392-8.866,26.189-10.94,38.613-5.41c2.091,0.93,4.198,1.792,6.323,2.594    c12.271,4.617,20.966,16.068,22.699,29.884l0.674,5.376c0.529,4.275,4.164,7.475,8.465,7.475h20.011    c4.309,0,7.936-3.2,8.465-7.467l0.674-5.376c1.724-13.807,10.428-25.259,22.699-29.884c2.133-0.802,4.241-1.664,6.323-2.594    c12.425-5.521,27.23-3.465,38.622,5.41l3.465,2.705c3.396,2.637,8.226,2.33,11.273-0.708l14.148-14.148    c3.046-3.046,3.354-7.876,0.708-11.273l-2.714-3.49c-8.866-11.401-10.94-26.189-5.41-38.622c0.93-2.082,1.792-4.19,2.594-6.315    c4.625-12.271,16.077-20.966,29.884-22.699l5.376-0.674c4.275-0.529,7.475-4.164,7.475-8.465v-20.011    C307.191,207.548,303.983,203.913,299.716,203.383z M290.133,224.367c-19.174,3.123-35.021,15.735-41.634,33.314    c-0.683,1.826-1.425,3.627-2.219,5.41c-7.68,17.271-5.47,37.504,5.675,53.513l-3.61,3.61    c-16.009-11.145-36.241-13.355-53.521-5.675c-1.775,0.794-3.576,1.527-5.393,2.21c-17.587,6.622-30.191,22.46-33.314,41.643    h-5.026c-3.115-19.183-15.727-35.021-33.306-41.643c-1.818-0.683-3.618-1.417-5.402-2.21c-17.28-7.689-37.504-5.47-53.513,5.675    l-3.618-3.61c11.145-16.009,13.363-36.241,5.683-53.504c-0.794-1.792-1.527-3.593-2.219-5.41    c-6.622-17.579-22.46-30.191-41.643-33.314v-5.018c19.183-3.123,35.021-15.735,41.643-33.314c0.683-1.826,1.425-3.627,2.219-5.41    c7.671-17.271,5.461-37.504-5.683-53.513l3.61-3.61c16.009,11.145,36.241,13.355,53.513,5.675c1.783-0.794,3.575-1.527,5.393-2.21    c17.587-6.622,30.199-22.46,33.314-41.643h5.026c3.115,19.174,15.727,35.021,33.314,41.643c1.818,0.683,3.618,1.416,5.402,2.21    c17.271,7.68,37.504,5.461,53.513-5.675l3.618,3.61c-11.153,16.009-13.363,36.241-5.683,53.504    c0.794,1.792,1.536,3.593,2.219,5.41c6.622,17.579,22.46,30.191,41.643,33.314V224.367z"/><path d="M504.533,367.292l-4.429-0.555c-10.812-1.357-19.78-8.149-23.39-17.724c-0.666-1.784-1.391-3.541-2.167-5.299    c-4.318-9.719-2.688-21.316,4.267-30.259l2.236-2.867c2.645-3.396,2.338-8.235-0.7-11.273l-11.657-11.648    c-3.038-3.046-7.868-3.345-11.264-0.708l-2.876,2.236c-8.943,6.955-20.54,8.585-30.268,4.267    c-1.749-0.777-3.516-1.493-5.291-2.167c-9.583-3.61-16.375-12.57-17.724-23.381l-0.555-4.429    c-0.529-4.275-4.164-7.475-8.465-7.475h-16.478c-4.309,0-7.945,3.2-8.474,7.475l-0.546,4.429    c-1.357,10.812-8.149,19.78-17.732,23.39c-1.775,0.674-3.533,1.391-5.282,2.167c-9.737,4.309-21.325,2.688-30.276-4.275    l-2.867-2.227c-3.396-2.637-8.226-2.321-11.264,0.708l-11.648,11.648c-3.046,3.038-3.354,7.876-0.708,11.273l2.236,2.867    c6.963,8.943,8.593,20.54,4.267,30.268c-0.768,1.749-1.493,3.507-2.159,5.282c-3.618,9.583-12.578,16.375-23.398,17.732    l-4.429,0.555c-4.275,0.529-7.475,4.164-7.475,8.465v16.478c0,4.301,3.209,7.936,7.475,8.465l4.429,0.555    c10.82,1.357,19.78,8.149,23.39,17.724c0.666,1.784,1.391,3.541,2.167,5.299c4.326,9.719,2.688,21.316-4.267,30.259l-2.236,2.867    c-2.637,3.396-2.338,8.235,0.708,11.273l11.648,11.648c3.046,3.038,7.868,3.345,11.264,0.708l2.876-2.236    c8.943-6.955,20.54-8.585,30.268-4.267c1.741,0.777,3.507,1.493,5.282,2.167c9.583,3.61,16.375,12.57,17.732,23.381l0.546,4.429    c0.538,4.275,4.173,7.475,8.474,7.475h16.478c4.301,0,7.927-3.2,8.474-7.467l0.546-4.429c1.357-10.82,8.149-19.789,17.741-23.398    c1.775-0.674,3.541-1.391,5.282-2.167c9.719-4.326,21.316-2.697,30.268,4.275l2.867,2.227c3.396,2.637,8.226,2.33,11.264-0.708    l11.657-11.648c3.038-3.038,3.345-7.876,0.7-11.273l-2.236-2.867c-6.955-8.943-8.593-20.54-4.267-30.268    c0.777-1.749,1.502-3.507,2.167-5.282c3.61-9.583,12.57-16.375,23.39-17.732l4.429-0.555c4.267-0.529,7.467-4.164,7.467-8.465    v-16.478C512,371.456,508.8,367.821,504.533,367.292z M494.933,384.794c-15.753,2.995-28.698,13.577-34.202,28.177    c-0.546,1.468-1.143,2.927-1.783,4.361c-6.374,14.336-4.753,31.044,4.104,44.493l-1.22,1.22    c-13.44-8.858-30.157-10.479-44.493-4.104c-1.442,0.64-2.901,1.237-4.361,1.783c-14.601,5.504-25.173,18.441-28.169,34.202h-1.604    c-2.995-15.761-13.568-28.698-28.177-34.193c-1.476-0.555-2.927-1.152-4.369-1.792c-14.336-6.374-31.053-4.753-44.493,4.104    l-1.22-1.22c8.858-13.44,10.479-30.157,4.104-44.484c-0.64-1.442-1.237-2.901-1.792-4.378    c-5.504-14.601-18.449-25.173-34.202-28.169v-1.604c15.761-2.995,28.698-13.577,34.202-28.177    c0.555-1.468,1.152-2.927,1.792-4.361c6.374-14.336,4.753-31.044-4.104-44.493l1.22-1.22c13.44,8.858,30.157,10.479,44.493,4.105    c1.442-0.631,2.901-1.229,4.369-1.784c14.601-5.504,25.173-18.44,28.169-34.202h1.604c2.995,15.753,13.577,28.698,28.169,34.193    c1.468,0.555,2.927,1.152,4.369,1.792c14.336,6.374,31.053,4.753,44.493-4.105l1.22,1.22c-8.858,13.44-10.479,30.157-4.104,44.484    c0.64,1.442,1.237,2.901,1.792,4.378c5.495,14.601,18.44,25.173,34.193,28.169V384.794z"/><path d="M153.609,162.125c-32.939,0-59.733,26.795-59.733,59.733c0,32.939,26.795,59.733,59.733,59.733    s59.733-26.795,59.733-59.733C213.342,188.919,186.547,162.125,153.609,162.125z M153.609,264.525    c-23.526,0-42.667-19.14-42.667-42.667c0-23.526,19.14-42.667,42.667-42.667c23.526,0,42.667,19.14,42.667,42.667    C196.275,245.385,177.135,264.525,153.609,264.525z"/><path d="M504.525,95.403l-3.797-0.478c-8.687-1.092-16.162-6.75-19.055-14.421c-0.589-1.545-1.212-3.081-1.886-4.591    c-3.524-7.927-2.185-17.391,3.499-24.695l1.92-2.458c2.645-3.396,2.347-8.226-0.7-11.273l-9.984-9.984    c-3.046-3.046-7.876-3.345-11.273-0.708l-2.466,1.92c-7.313,5.683-16.777,7.04-24.695,3.507c-1.527-0.683-3.063-1.314-4.599-1.886    c-7.791-2.935-13.32-10.24-14.421-19.055l-0.469-3.797c-0.538-4.267-4.173-7.475-8.474-7.475h-14.123    c-4.301,0-7.936,3.208-8.465,7.475l-0.469,3.789c-1.092,8.687-6.75,16.171-14.404,19.055c-1.562,0.589-3.098,1.212-4.617,1.894    c-7.919,3.516-17.391,2.185-24.704-3.507l-2.466-1.911c-3.396-2.637-8.226-2.33-11.264,0.708l-9.984,9.984    c-3.046,3.046-3.345,7.876-0.7,11.273l1.911,2.458c5.683,7.313,7.031,16.777,3.507,24.695c-0.674,1.519-1.297,3.046-1.886,4.599    c-2.884,7.663-10.359,13.329-19.055,14.413l-3.797,0.478c-4.275,0.529-7.475,4.164-7.475,8.465v14.123    c0,4.301,3.208,7.936,7.475,8.465l3.797,0.478c8.695,1.092,16.171,6.75,19.063,14.421c0.589,1.544,1.212,3.081,1.886,4.591    c3.524,7.927,2.176,17.391-3.507,24.695l-1.911,2.458c-2.645,3.396-2.347,8.226,0.7,11.273l9.984,9.984    c3.046,3.046,7.876,3.354,11.273,0.708l2.466-1.92c7.313-5.683,16.777-7.023,24.695-3.507c1.527,0.683,3.063,1.314,4.599,1.886    c7.791,2.935,13.312,10.24,14.413,19.055l0.478,3.797c0.529,4.267,4.164,7.475,8.465,7.475h14.123    c4.309,0,7.945-3.209,8.448-7.475l0.469-3.789c1.109-8.823,6.63-16.128,14.404-19.055c1.562-0.589,3.098-1.212,4.617-1.894    c7.927-3.524,17.399-2.185,24.704,3.507l2.466,1.911c3.396,2.637,8.235,2.33,11.273-0.708l9.984-9.984    c3.046-3.046,3.345-7.876,0.7-11.273l-1.911-2.458c-5.683-7.313-7.031-16.777-3.507-24.695c0.674-1.519,1.306-3.046,1.886-4.599    c2.893-7.663,10.368-13.329,19.063-14.413l3.797-0.478c4.267-0.529,7.467-4.164,7.467-8.465v-14.123    C511.992,99.567,508.792,95.932,504.525,95.403z M465.715,135.322c-0.461,1.237-0.973,2.466-1.51,3.686    c-5.367,12.058-4.326,26.018,2.534,37.572c-11.563-6.861-25.515-7.902-37.589-2.534c-1.203,0.538-2.423,1.041-3.669,1.51    c-12.186,4.599-21.205,15.044-24.405,27.904c-3.2-12.868-12.22-23.313-24.422-27.913c-1.229-0.461-2.449-0.964-3.661-1.502    c-5.154-2.287-10.65-3.413-16.162-3.413c-7.39,0-14.797,2.022-21.41,5.948c6.861-11.563,7.902-25.515,2.534-37.581    c-0.546-1.22-1.041-2.441-1.51-3.678c-4.591-12.194-15.036-21.205-27.904-24.405c12.868-3.191,23.313-12.211,27.904-24.397    c0.461-1.237,0.964-2.466,1.51-3.686c5.367-12.058,4.326-26.018-2.534-37.572c11.554,6.869,25.515,7.893,37.589,2.534    c1.203-0.538,2.423-1.041,3.669-1.51c12.186-4.599,21.197-15.044,24.397-27.904c3.2,12.868,12.22,23.313,24.422,27.913    c1.229,0.461,2.449,0.964,3.661,1.502c12.058,5.367,26.018,4.318,37.572-2.534c-6.861,11.563-7.893,25.515-2.534,37.581    c0.546,1.22,1.05,2.44,1.51,3.678c4.599,12.194,15.044,21.205,27.913,24.405C480.751,114.116,470.306,123.136,465.715,135.322z"/><path d="M384.009,332.791c-28.228,0-51.2,22.963-51.2,51.2c0,28.237,22.972,51.2,51.2,51.2c28.228,0,51.2-22.963,51.2-51.2    C435.209,355.755,412.245,332.791,384.009,332.791z M384.009,418.125c-18.825,0-34.133-15.309-34.133-34.133    c0-18.825,15.309-34.133,34.133-34.133c18.816,0,34.133,15.309,34.133,34.133C418.142,402.816,402.833,418.125,384.009,418.125z"/><path d="M401.075,76.791c-18.825,0-34.133,15.309-34.133,34.133s15.309,34.133,34.133,34.133    c18.816,0,34.133-15.309,34.133-34.133S419.9,76.791,401.075,76.791z M401.075,127.991c-9.412,0-17.067-7.654-17.067-17.067    c0-9.412,7.654-17.067,17.067-17.067c9.412,0,17.067,7.654,17.067,17.067C418.142,120.337,410.487,127.991,401.075,127.991z"/></g><g transform="matrix(0.1171875 0 0 0.1171875 129 288)" id="L1_7"><path d="M503.467,213.333H473.6c-9.822,0-18.526-6.263-21.163-15.241c-4.07-13.824-9.634-27.264-16.538-39.927    c-4.514-8.277-2.816-18.901,4.113-25.839l21.137-21.137c3.337-3.337,3.337-8.73,0-12.066L412.877,50.85    c-3.337-3.337-8.73-3.337-12.066,0l-21.137,21.137c-6.946,6.929-17.562,8.61-25.839,4.113    c-12.672-6.912-26.104-12.467-39.927-16.538c-8.977-2.637-15.241-11.341-15.241-21.163V8.533c0-4.71-3.823-8.533-8.533-8.533    h-68.267c-4.71,0-8.533,3.823-8.533,8.533V38.4c0,9.822-6.263,18.526-15.241,21.163c-13.815,4.07-27.255,9.626-39.927,16.538    c-8.269,4.514-18.893,2.816-25.839-4.113L111.189,50.85c-3.337-3.337-8.73-3.337-12.066,0L50.85,99.123    c-3.337,3.337-3.337,8.73,0,12.066l21.137,21.137c6.929,6.938,8.619,17.562,4.113,25.839    c-6.912,12.663-12.467,26.095-16.538,39.927c-2.637,8.977-11.341,15.241-21.163,15.241H8.533c-4.71,0-8.533,3.823-8.533,8.533    v68.267c0,4.71,3.823,8.533,8.533,8.533H38.4c9.822,0,18.526,6.263,21.163,15.24c4.07,13.815,9.626,27.255,16.538,39.927    c4.514,8.277,2.816,18.901-4.113,25.839L50.85,400.811c-3.337,3.337-3.337,8.73,0,12.066l48.273,48.273    c3.337,3.336,8.73,3.336,12.066,0l21.137-21.137c6.938-6.938,17.562-8.619,25.839-4.113c12.672,6.912,26.103,12.467,39.927,16.538    c8.977,2.637,15.241,11.341,15.241,21.163v29.867c0,4.71,3.823,8.533,8.533,8.533h68.267c4.71,0,8.533-3.823,8.533-8.533V473.6    c0-9.822,6.263-18.526,15.24-21.163c13.815-4.07,27.255-9.626,39.927-16.538c8.277-4.497,18.901-2.825,25.839,4.113l21.137,21.137    c3.337,3.337,8.73,3.337,12.066,0l48.273-48.273c3.336-3.337,3.336-8.73,0-12.066l-21.137-21.137    c-6.929-6.938-8.619-17.562-4.113-25.839c6.912-12.672,12.467-26.104,16.538-39.927c2.637-8.977,11.341-15.241,21.163-15.241    h29.867c4.71,0,8.533-3.823,8.533-8.533v-68.267C512,217.156,508.177,213.333,503.467,213.333z M494.933,281.6H473.6    c-17.34,0-32.777,11.307-37.538,27.494c-3.721,12.663-8.815,24.969-15.138,36.582c-8.107,14.874-5.222,33.818,7.031,46.071    l15.104,15.104l-36.207,36.207l-15.104-15.104c-12.254-12.245-31.198-15.138-46.071-7.031    c-11.614,6.323-23.919,11.418-36.582,15.138C292.907,440.823,281.6,456.26,281.6,473.6v21.333h-51.2V473.6    c0-17.34-11.307-32.777-27.494-37.538c-12.664-3.721-24.969-8.815-36.582-15.138c-14.874-8.107-33.818-5.222-46.071,7.031    l-15.104,15.104l-36.207-36.207l15.104-15.104c12.245-12.254,15.138-31.198,7.031-46.071    c-6.323-11.614-11.418-23.919-15.138-36.582C71.177,292.907,55.74,281.6,38.4,281.6H17.067v-51.2H38.4    c17.34,0,32.776-11.307,37.547-27.494c3.721-12.672,8.815-24.977,15.138-36.582c8.107-14.874,5.222-33.818-7.031-46.071    l-15.104-15.104l36.198-36.207l15.104,15.104c12.254,12.245,31.198,15.138,46.071,7.031c11.614-6.323,23.919-11.418,36.582-15.138    C219.093,71.177,230.4,55.74,230.4,38.4V17.067h51.2V38.4c0,17.34,11.307,32.776,27.494,37.547    c12.663,3.721,24.969,8.815,36.582,15.138c14.865,8.107,33.818,5.222,46.071-7.031l15.104-15.104l36.207,36.198l-15.104,15.104    c-12.245,12.254-15.138,31.198-7.031,46.071c6.315,11.605,11.409,23.91,15.138,36.582c4.762,16.188,20.198,27.494,37.538,27.494    h21.333V281.6z"/><path d="M256,119.467c-75.281,0-136.533,61.252-136.533,136.533S180.719,392.533,256,392.533S392.533,331.281,392.533,256    S331.281,119.467,256,119.467z M256,375.467c-65.877,0-119.467-53.589-119.467-119.467S190.123,136.533,256,136.533    S375.467,190.123,375.467,256S321.877,375.467,256,375.467z"/><path d="M182.733,256l28.1-28.1c3.337-3.337,3.337-8.73,0-12.066s-8.73-3.337-12.066,0l-34.133,34.133    c-3.337,3.336-3.337,8.73,0,12.066l34.133,34.133c1.664,1.664,3.849,2.5,6.033,2.5c2.185,0,4.369-0.836,6.033-2.5    c3.337-3.337,3.337-8.73,0-12.066L182.733,256z"/><path d="M347.366,249.967l-34.133-34.133c-3.337-3.337-8.73-3.337-12.066,0c-3.336,3.337-3.336,8.73,0,12.066l28.1,28.1    l-28.1,28.1c-3.336,3.337-3.336,8.73,0,12.066c1.664,1.664,3.849,2.5,6.033,2.5c2.185,0,4.369-0.836,6.033-2.5l34.133-34.133    C350.703,258.697,350.703,253.303,347.366,249.967z"/><path d="M275.576,188.1c-4.48-1.399-9.284,1.135-10.667,5.649l-34.133,110.933c-1.382,4.506,1.143,9.284,5.649,10.667    c0.828,0.256,1.673,0.384,2.509,0.384c3.652,0,7.031-2.355,8.158-6.033l34.133-110.933    C282.607,194.261,280.081,189.483,275.576,188.1z"/></g><g transform="matrix(0.1171875 0 0 0.1171875 81 186)" id="L1_8"><path d="M503.467,213.333H473.6c-9.822,0-18.526-6.263-21.163-15.241c-4.07-13.824-9.634-27.264-16.538-39.927    c-4.514-8.277-2.816-18.901,4.113-25.839l21.137-21.137c3.337-3.337,3.337-8.73,0-12.066L412.877,50.85    c-3.337-3.337-8.73-3.337-12.066,0l-21.137,21.137c-6.946,6.929-17.562,8.61-25.839,4.113    c-12.672-6.912-26.104-12.467-39.927-16.538c-8.977-2.637-15.241-11.341-15.241-21.163V8.533c0-4.71-3.823-8.533-8.533-8.533    h-68.267c-4.71,0-8.533,3.823-8.533,8.533V38.4c0,9.822-6.263,18.526-15.241,21.163c-13.815,4.07-27.255,9.626-39.927,16.538    c-8.269,4.514-18.893,2.816-25.839-4.113L111.189,50.85c-3.337-3.337-8.73-3.337-12.066,0L50.85,99.123    c-3.337,3.337-3.337,8.73,0,12.066l21.137,21.137c6.929,6.938,8.619,17.562,4.113,25.839    c-6.912,12.663-12.467,26.095-16.538,39.927c-2.637,8.977-11.341,15.241-21.163,15.241H8.533c-4.71,0-8.533,3.823-8.533,8.533    v68.267c0,4.71,3.823,8.533,8.533,8.533H38.4c9.822,0,18.526,6.263,21.163,15.24c4.07,13.815,9.626,27.255,16.538,39.927    c4.514,8.277,2.816,18.901-4.113,25.839L50.85,400.811c-3.337,3.337-3.337,8.73,0,12.066l48.273,48.273    c3.337,3.336,8.73,3.336,12.066,0l21.137-21.137c6.938-6.938,17.562-8.619,25.839-4.113c12.672,6.912,26.103,12.467,39.927,16.538    c8.977,2.637,15.241,11.341,15.241,21.163v29.867c0,4.71,3.823,8.533,8.533,8.533h68.267c4.71,0,8.533-3.823,8.533-8.533V473.6    c0-9.822,6.263-18.526,15.24-21.163c13.815-4.07,27.255-9.626,39.927-16.538c8.277-4.497,18.901-2.825,25.839,4.113l21.137,21.137    c3.337,3.337,8.73,3.337,12.066,0l48.273-48.273c3.336-3.337,3.336-8.73,0-12.066l-21.137-21.137    c-6.929-6.938-8.619-17.562-4.113-25.839c6.912-12.672,12.467-26.104,16.538-39.927c2.637-8.977,11.341-15.241,21.163-15.241    h29.867c4.71,0,8.533-3.823,8.533-8.533v-68.267C512,217.156,508.177,213.333,503.467,213.333z M494.933,281.6H473.6    c-17.34,0-32.777,11.307-37.538,27.494c-3.721,12.663-8.815,24.969-15.138,36.582c-8.107,14.874-5.222,33.818,7.031,46.071    l15.104,15.104l-36.207,36.207l-15.104-15.104c-12.254-12.245-31.198-15.138-46.071-7.031    c-11.614,6.323-23.919,11.418-36.582,15.138C292.907,440.823,281.6,456.26,281.6,473.6v21.333h-51.2V473.6    c0-17.34-11.307-32.777-27.494-37.538c-12.664-3.721-24.969-8.815-36.582-15.138c-14.874-8.107-33.818-5.222-46.071,7.031    l-15.104,15.104l-36.207-36.207l15.104-15.104c12.245-12.254,15.138-31.198,7.031-46.071    c-6.323-11.614-11.418-23.919-15.138-36.582C71.177,292.907,55.74,281.6,38.4,281.6H17.067v-51.2H38.4    c17.34,0,32.776-11.307,37.547-27.494c3.721-12.672,8.815-24.977,15.138-36.582c8.107-14.874,5.222-33.818-7.031-46.071    l-15.104-15.104l36.198-36.207l15.104,15.104c12.254,12.245,31.198,15.138,46.071,7.031c11.614-6.323,23.919-11.418,36.582-15.138    C219.093,71.177,230.4,55.74,230.4,38.4V17.067h51.2V38.4c0,17.34,11.307,32.776,27.494,37.547    c12.663,3.721,24.969,8.815,36.582,15.138c14.865,8.107,33.818,5.222,46.071-7.031l15.104-15.104l36.207,36.198l-15.104,15.104    c-12.245,12.254-15.138,31.198-7.031,46.071c6.315,11.605,11.409,23.91,15.138,36.582c4.762,16.188,20.198,27.494,37.538,27.494    h21.333V281.6z"/><path d="M256,119.467c-75.281,0-136.533,61.252-136.533,136.533S180.719,392.533,256,392.533S392.533,331.281,392.533,256    S331.281,119.467,256,119.467z M256,375.467c-65.877,0-119.467-53.589-119.467-119.467S190.123,136.533,256,136.533    S375.467,190.123,375.467,256S321.877,375.467,256,375.467z"/><path d="M182.733,256l28.1-28.1c3.337-3.337,3.337-8.73,0-12.066s-8.73-3.337-12.066,0l-34.133,34.133    c-3.337,3.336-3.337,8.73,0,12.066l34.133,34.133c1.664,1.664,3.849,2.5,6.033,2.5c2.185,0,4.369-0.836,6.033-2.5    c3.337-3.337,3.337-8.73,0-12.066L182.733,256z"/><path d="M347.366,249.967l-34.133-34.133c-3.337-3.337-8.73-3.337-12.066,0c-3.336,3.337-3.336,8.73,0,12.066l28.1,28.1    l-28.1,28.1c-3.336,3.337-3.336,8.73,0,12.066c1.664,1.664,3.849,2.5,6.033,2.5c2.185,0,4.369-0.836,6.033-2.5l34.133-34.133    C350.703,258.697,350.703,253.303,347.366,249.967z"/><path d="M275.576,188.1c-4.48-1.399-9.284,1.135-10.667,5.649l-34.133,110.933c-1.382,4.506,1.143,9.284,5.649,10.667    c0.828,0.256,1.673,0.384,2.509,0.384c3.652,0,7.031-2.355,8.158-6.033l34.133-110.933    C282.607,194.261,280.081,189.483,275.576,188.1z"/></g><g transform="matrix(0.1171875 0 0 0.1171875 8 317)" id="L1_9"><path d="M503.467,213.333H473.6c-9.822,0-18.526-6.263-21.163-15.241c-4.07-13.824-9.634-27.264-16.538-39.927    c-4.514-8.277-2.816-18.901,4.113-25.839l21.137-21.137c3.337-3.337,3.337-8.73,0-12.066L412.877,50.85    c-3.337-3.337-8.73-3.337-12.066,0l-21.137,21.137c-6.946,6.929-17.562,8.61-25.839,4.113    c-12.672-6.912-26.104-12.467-39.927-16.538c-8.977-2.637-15.241-11.341-15.241-21.163V8.533c0-4.71-3.823-8.533-8.533-8.533    h-68.267c-4.71,0-8.533,3.823-8.533,8.533V38.4c0,9.822-6.263,18.526-15.241,21.163c-13.815,4.07-27.255,9.626-39.927,16.538    c-8.269,4.514-18.893,2.816-25.839-4.113L111.189,50.85c-3.337-3.337-8.73-3.337-12.066,0L50.85,99.123    c-3.337,3.337-3.337,8.73,0,12.066l21.137,21.137c6.929,6.938,8.619,17.562,4.113,25.839    c-6.912,12.663-12.467,26.095-16.538,39.927c-2.637,8.977-11.341,15.241-21.163,15.241H8.533c-4.71,0-8.533,3.823-8.533,8.533    v68.267c0,4.71,3.823,8.533,8.533,8.533H38.4c9.822,0,18.526,6.263,21.163,15.24c4.07,13.815,9.626,27.255,16.538,39.927    c4.514,8.277,2.816,18.901-4.113,25.839L50.85,400.811c-3.337,3.337-3.337,8.73,0,12.066l48.273,48.273    c3.337,3.336,8.73,3.336,12.066,0l21.137-21.137c6.938-6.938,17.562-8.619,25.839-4.113c12.672,6.912,26.103,12.467,39.927,16.538    c8.977,2.637,15.241,11.341,15.241,21.163v29.867c0,4.71,3.823,8.533,8.533,8.533h68.267c4.71,0,8.533-3.823,8.533-8.533V473.6    c0-9.822,6.263-18.526,15.24-21.163c13.815-4.07,27.255-9.626,39.927-16.538c8.277-4.497,18.901-2.825,25.839,4.113l21.137,21.137    c3.337,3.337,8.73,3.337,12.066,0l48.273-48.273c3.336-3.337,3.336-8.73,0-12.066l-21.137-21.137    c-6.929-6.938-8.619-17.562-4.113-25.839c6.912-12.672,12.467-26.104,16.538-39.927c2.637-8.977,11.341-15.241,21.163-15.241    h29.867c4.71,0,8.533-3.823,8.533-8.533v-68.267C512,217.156,508.177,213.333,503.467,213.333z M494.933,281.6H473.6    c-17.34,0-32.777,11.307-37.538,27.494c-3.721,12.663-8.815,24.969-15.138,36.582c-8.107,14.874-5.222,33.818,7.031,46.071    l15.104,15.104l-36.207,36.207l-15.104-15.104c-12.254-12.245-31.198-15.138-46.071-7.031    c-11.614,6.323-23.919,11.418-36.582,15.138C292.907,440.823,281.6,456.26,281.6,473.6v21.333h-51.2V473.6    c0-17.34-11.307-32.777-27.494-37.538c-12.664-3.721-24.969-8.815-36.582-15.138c-14.874-8.107-33.818-5.222-46.071,7.031    l-15.104,15.104l-36.207-36.207l15.104-15.104c12.245-12.254,15.138-31.198,7.031-46.071    c-6.323-11.614-11.418-23.919-15.138-36.582C71.177,292.907,55.74,281.6,38.4,281.6H17.067v-51.2H38.4    c17.34,0,32.776-11.307,37.547-27.494c3.721-12.672,8.815-24.977,15.138-36.582c8.107-14.874,5.222-33.818-7.031-46.071    l-15.104-15.104l36.198-36.207l15.104,15.104c12.254,12.245,31.198,15.138,46.071,7.031c11.614-6.323,23.919-11.418,36.582-15.138    C219.093,71.177,230.4,55.74,230.4,38.4V17.067h51.2V38.4c0,17.34,11.307,32.776,27.494,37.547    c12.663,3.721,24.969,8.815,36.582,15.138c14.865,8.107,33.818,5.222,46.071-7.031l15.104-15.104l36.207,36.198l-15.104,15.104    c-12.245,12.254-15.138,31.198-7.031,46.071c6.315,11.605,11.409,23.91,15.138,36.582c4.762,16.188,20.198,27.494,37.538,27.494    h21.333V281.6z"/><path d="M256,119.467c-75.281,0-136.533,61.252-136.533,136.533S180.719,392.533,256,392.533S392.533,331.281,392.533,256    S331.281,119.467,256,119.467z M256,375.467c-65.877,0-119.467-53.589-119.467-119.467S190.123,136.533,256,136.533    S375.467,190.123,375.467,256S321.877,375.467,256,375.467z"/><path d="M182.733,256l28.1-28.1c3.337-3.337,3.337-8.73,0-12.066s-8.73-3.337-12.066,0l-34.133,34.133    c-3.337,3.336-3.337,8.73,0,12.066l34.133,34.133c1.664,1.664,3.849,2.5,6.033,2.5c2.185,0,4.369-0.836,6.033-2.5    c3.337-3.337,3.337-8.73,0-12.066L182.733,256z"/><path d="M347.366,249.967l-34.133-34.133c-3.337-3.337-8.73-3.337-12.066,0c-3.336,3.337-3.336,8.73,0,12.066l28.1,28.1    l-28.1,28.1c-3.336,3.337-3.336,8.73,0,12.066c1.664,1.664,3.849,2.5,6.033,2.5c2.185,0,4.369-0.836,6.033-2.5l34.133-34.133    C350.703,258.697,350.703,253.303,347.366,249.967z"/><path d="M275.576,188.1c-4.48-1.399-9.284,1.135-10.667,5.649l-34.133,110.933c-1.382,4.506,1.143,9.284,5.649,10.667    c0.828,0.256,1.673,0.384,2.509,0.384c3.652,0,7.031-2.355,8.158-6.033l34.133-110.933    C282.607,194.261,280.081,189.483,275.576,188.1z"/></g></defs><g fi:class="KUsePattern"><pattern id="pattern_L1_6" width="350" height="350" patternUnits="userSpaceOnUse"><use xlink:href="#L1_6" x="-350" y="-350"/><use xlink:href="#L1_6" x="0" y="-350"/><use xlink:href="#L1_6" x="350" y="-350"/><use xlink:href="#L1_6" x="-350" y="0"/><use xlink:href="#L1_6" x="0" y="0"/><use xlink:href="#L1_6" x="350" y="0"/><use xlink:href="#L1_6" x="-350" y="350"/><use xlink:href="#L1_6" x="0" y="350"/><use xlink:href="#L1_6" x="350" y="350"/></pattern><rect x="0" y="0" width="100%" height="100%" fill="url(#pattern_L1_6)"/></g><g fi:class="KUsePattern" transform="matrix(1 0 0 1 20 20)"><pattern id="pattern_UNKNOWN" width="350" height="350" patternUnits="userSpaceOnUse"><use xlink:href="#UNKNOWN" x="-350" y="-350"/><use xlink:href="#UNKNOWN" x="0" y="-350"/><use xlink:href="#UNKNOWN" x="350" y="-350"/><use xlink:href="#UNKNOWN" x="-350" y="0"/><use xlink:href="#UNKNOWN" x="0" y="0"/><use xlink:href="#UNKNOWN" x="350" y="0"/><use xlink:href="#UNKNOWN" x="-350" y="350"/><use xlink:href="#UNKNOWN" x="0" y="350"/><use xlink:href="#UNKNOWN" x="350" y="350"/></pattern><rect x="0" y="0" width="100%" height="100%" fill="url(#pattern_UNKNOWN)"/></g><g fi:class="KUsePattern" transform="matrix(1 0 0 1 20 20)"><pattern id="pattern_UNKNOWN" width="350" height="350" patternUnits="userSpaceOnUse"><use xlink:href="#UNKNOWN" x="-350" y="-350"/><use xlink:href="#UNKNOWN" x="0" y="-350"/><use xlink:href="#UNKNOWN" x="350" y="-350"/><use xlink:href="#UNKNOWN" x="-350" y="0"/><use xlink:href="#UNKNOWN" x="0" y="0"/><use xlink:href="#UNKNOWN" x="350" y="0"/><use xlink:href="#UNKNOWN" x="-350" y="350"/><use xlink:href="#UNKNOWN" x="0" y="350"/><use xlink:href="#UNKNOWN" x="350" y="350"/></pattern><rect x="0" y="0" width="100%" height="100%" fill="url(#pattern_UNKNOWN)"/></g><g fi:class="KUsePattern"><pattern id="pattern_L1_7" width="350" height="350" patternUnits="userSpaceOnUse"><use xlink:href="#L1_7" x="-350" y="-350"/><use xlink:href="#L1_7" x="0" y="-350"/><use xlink:href="#L1_7" x="350" y="-350"/><use xlink:href="#L1_7" x="-350" y="0"/><use xlink:href="#L1_7" x="0" y="0"/><use xlink:href="#L1_7" x="350" y="0"/><use xlink:href="#L1_7" x="-350" y="350"/><use xlink:href="#L1_7" x="0" y="350"/><use xlink:href="#L1_7" x="350" y="350"/></pattern><rect x="0" y="0" width="100%" height="100%" fill="url(#pattern_L1_7)"/></g><g fi:class="KUsePattern"><pattern id="pattern_L1_8" width="350" height="350" patternUnits="userSpaceOnUse"><use xlink:href="#L1_8" x="-350" y="-350"/><use xlink:href="#L1_8" x="0" y="-350"/><use xlink:href="#L1_8" x="350" y="-350"/><use xlink:href="#L1_8" x="-350" y="0"/><use xlink:href="#L1_8" x="0" y="0"/><use xlink:href="#L1_8" x="350" y="0"/><use xlink:href="#L1_8" x="-350" y="350"/><use xlink:href="#L1_8" x="0" y="350"/><use xlink:href="#L1_8" x="350" y="350"/></pattern><rect x="0" y="0" width="100%" height="100%" fill="url(#pattern_L1_8)"/></g><g fi:class="KUsePattern"><pattern id="pattern_L1_9" width="350" height="350" patternUnits="userSpaceOnUse"><use xlink:href="#L1_9" x="-350" y="-350"/><use xlink:href="#L1_9" x="0" y="-350"/><use xlink:href="#L1_9" x="350" y="-350"/><use xlink:href="#L1_9" x="-350" y="0"/><use xlink:href="#L1_9" x="0" y="0"/><use xlink:href="#L1_9" x="350" y="0"/><use xlink:href="#L1_9" x="-350" y="350"/><use xlink:href="#L1_9" x="0" y="350"/><use xlink:href="#L1_9" x="350" y="350"/></pattern><rect x="0" y="0" width="100%" height="100%" fill="url(#pattern_L1_9)"/></g></svg>