<svg xmlns="http://www.w3.org/2000/svg" xmlns:xlink="http://www.w3.org/1999/xlink" fill="#cc9966" xmlns:fi="http://pattern.flaticon.com/" x="0" y="0" width="700" height="350" viewBox="0 0 2450 1225"><rect x="0px" y="0px" width="100%" height="100%" opacity="1" fill="#9f66cc"/><defs><path d="M75.067,2.72c-1.275,0.037-2.487,0.56-3.389,1.461l-15,15c-1.975,1.93-2.012,5.096-0.082,7.071   c1.93,1.975,5.096,2.012,7.071,0.082c0.028-0.027,0.056-0.055,0.083-0.083l6.463-6.463v42.928h-10   c-2.761-0.039-5.032,2.168-5.071,4.929s2.168,5.032,4.929,5.071c0.047,0.001,0.094,0.001,0.141,0h14.182   c0.535,0.088,1.08,0.088,1.615,0h9.203c2.761,0.039,5.032-2.168,5.071-4.929s-2.168-5.032-4.929-5.071   c-0.047-0.001-0.094-0.001-0.141,0h-5v-55c-0.001-2.762-2.241-4.999-5.003-4.998C75.163,2.718,75.115,2.719,75.067,2.72z    M130.21,2.72c-1.275,0.037-2.487,0.56-3.389,1.461l-15,15c-1.992,1.913-2.057,5.078-0.144,7.07s5.078,2.057,7.07,0.144   c0.049-0.047,0.097-0.095,0.144-0.144l6.465-6.465v42.93h-10c-2.761-0.039-5.032,2.168-5.071,4.929   c-0.039,2.761,2.168,5.032,4.929,5.071c0.047,0.001,0.094,0.001,0.141,0h14.182c0.537,0.088,1.084,0.088,1.621,0h9.197   c2.761,0.039,5.032-2.168,5.071-4.929c0.039-2.761-2.168-5.032-4.929-5.071c-0.047-0.001-0.094-0.001-0.141,0h-5v-55   c-0.001-2.762-2.241-4.999-5.003-4.998C130.306,2.718,130.258,2.719,130.21,2.72z M17.571,2.754c-9.609,0-17.5,7.891-17.5,17.5v35   c0,9.609,7.891,17.5,17.5,17.5s17.5-7.891,17.5-17.5v-35C35.071,10.645,27.18,2.754,17.571,2.754z M182.999,2.754   c-9.609,0-17.5,7.891-17.5,17.5v35c0,9.609,7.891,17.5,17.5,17.5s17.5-7.891,17.5-17.5v-35   C200.499,10.645,192.607,2.754,182.999,2.754z M238.142,2.754c-9.609,0-17.5,7.891-17.5,17.5v35c0,9.609,7.891,17.5,17.5,17.5   c9.609,0,17.5-7.891,17.5-17.5v-35C255.642,10.645,247.75,2.754,238.142,2.754z M17.571,12.754c4.241,0,7.5,3.259,7.5,7.5v35   c0,4.241-3.259,7.5-7.5,7.5s-7.5-3.259-7.5-7.5v-35C10.071,16.012,13.33,12.754,17.571,12.754z M182.999,12.754   c4.241,0,7.5,3.259,7.5,7.5v35c0,4.241-3.259,7.5-7.5,7.5s-7.5-3.259-7.5-7.5v-35C175.499,16.012,178.757,12.754,182.999,12.754z    M238.142,12.754c4.241,0,7.5,3.259,7.5,7.5v35c0,4.241-3.259,7.5-7.5,7.5s-7.5-3.259-7.5-7.5v-35   C230.642,16.012,233.9,12.754,238.142,12.754z M19.925,92.791c-1.275,0.037-2.487,0.56-3.389,1.461l-15,15   c-1.952,1.954-1.949,5.121,0.005,7.072c1.952,1.95,5.115,1.95,7.067,0l6.463-6.463v42.928h-10   c-2.761-0.039-5.032,2.168-5.071,4.929c-0.039,2.761,2.168,5.032,4.929,5.071c0.047,0.001,0.094,0.001,0.141,0h14.182   c0.537,0.088,1.084,0.088,1.621,0h9.197c2.761,0.039,5.032-2.168,5.071-4.929c0.039-2.761-2.168-5.032-4.929-5.071   c-0.047-0.001-0.094-0.001-0.141,0h-5v-55c0-2.762-2.239-5-5.001-5C20.022,92.789,19.973,92.789,19.925,92.791z M130.21,92.791   c-1.275,0.037-2.487,0.56-3.389,1.461l-15,15c-1.976,1.93-2.013,5.095-0.084,7.071c1.93,1.976,5.095,2.013,7.071,0.084   c0.028-0.027,0.056-0.055,0.083-0.083l6.465-6.465v42.93h-10c-2.761-0.039-5.032,2.168-5.071,4.929   c-0.039,2.761,2.168,5.032,4.929,5.071c0.047,0.001,0.094,0.001,0.141,0h14.182c0.537,0.088,1.084,0.088,1.621,0h9.197   c2.761,0.039,5.032-2.168,5.071-4.929c0.039-2.761-2.168-5.032-4.929-5.071c-0.047-0.001-0.094-0.001-0.141,0h-5v-55   c0-2.762-2.239-5-5.001-5C130.307,92.789,130.258,92.789,130.21,92.791z M185.352,92.791c-1.275,0.037-2.487,0.56-3.389,1.461   l-15,15c-1.976,1.93-2.013,5.095-0.084,7.071c1.93,1.976,5.095,2.013,7.071,0.084c0.028-0.027,0.056-0.055,0.083-0.083l6.465-6.465   v42.93h-10c-2.761-0.039-5.032,2.168-5.071,4.929c-0.039,2.761,2.168,5.032,4.929,5.071c0.047,0.001,0.094,0.001,0.141,0h14.182   c0.537,0.088,1.084,0.088,1.621,0h9.197c2.761,0.039,5.032-2.168,5.071-4.929c0.039-2.761-2.168-5.032-4.929-5.071   c-0.047-0.001-0.094-0.001-0.141,0h-5v-55c0-2.762-2.239-5-5.001-5C185.45,92.789,185.401,92.789,185.352,92.791z M72.714,92.824   c-9.609,0-17.5,7.891-17.5,17.5v35c0,9.609,7.891,17.5,17.5,17.5s17.5-7.891,17.5-17.5v-35   C90.214,100.715,82.322,92.824,72.714,92.824z M238.142,92.824c-9.609,0-17.5,7.891-17.5,17.5v35c0,9.609,7.891,17.5,17.5,17.5   c9.609,0,17.5-7.891,17.5-17.5v-35C255.642,100.715,247.75,92.824,238.142,92.824z M72.714,102.824c4.241,0,7.5,3.259,7.5,7.5v35   c0,4.241-3.259,7.5-7.5,7.5s-7.5-3.259-7.5-7.5v-35C65.214,106.082,68.472,102.824,72.714,102.824z M238.142,102.824   c4.241,0,7.5,3.259,7.5,7.5v35c0,4.241-3.259,7.5-7.5,7.5s-7.5-3.259-7.5-7.5v-35C230.642,106.082,233.9,102.824,238.142,102.824z    M19.925,182.861c-1.275,0.037-2.487,0.56-3.389,1.461l-15,15c-1.953,1.953-1.953,5.119,0,7.072s5.119,1.953,7.072,0l6.463-6.463   v42.926h-10c-2.761-0.039-5.032,2.168-5.071,4.929c-0.039,2.761,2.168,5.032,4.929,5.071c0.047,0.001,0.094,0.001,0.141,0h14.182   c0.537,0.088,1.084,0.088,1.621,0h9.197c2.761,0.039,5.032-2.168,5.071-4.929c0.039-2.761-2.168-5.032-4.929-5.071   c-0.047-0.001-0.094-0.001-0.141,0h-5v-55c-0.001-2.762-2.241-4.999-5.003-4.998C20.021,182.859,19.973,182.86,19.925,182.861z    M75.067,182.861c-1.275,0.037-2.487,0.56-3.389,1.461l-15,15c-1.953,1.953-1.953,5.119,0,7.072s5.119,1.953,7.072,0l6.463-6.463   v42.926h-10c-2.761-0.039-5.032,2.168-5.071,4.929c-0.039,2.761,2.168,5.032,4.929,5.071c0.047,0.001,0.094,0.001,0.141,0h14.182   c0.535,0.088,1.08,0.088,1.615,0h9.203c2.761,0.039,5.032-2.168,5.071-4.929c0.039-2.761-2.168-5.032-4.929-5.071   c-0.047-0.001-0.094-0.001-0.141,0h-5v-55c-0.001-2.762-2.241-4.999-5.003-4.998C75.163,182.859,75.115,182.86,75.067,182.861z    M130.21,182.861c-1.275,0.037-2.487,0.56-3.389,1.461l-15,15c-1.976,1.93-2.013,5.095-0.084,7.071   c1.93,1.976,5.095,2.013,7.071,0.084c0.028-0.027,0.056-0.055,0.083-0.083l6.465-6.465v42.928h-10   c-2.761-0.039-5.032,2.168-5.071,4.929c-0.039,2.761,2.168,5.032,4.929,5.071c0.047,0.001,0.094,0.001,0.141,0h14.182   c0.537,0.088,1.084,0.088,1.621,0h9.197c2.761,0.039,5.032-2.168,5.071-4.929c0.039-2.761-2.168-5.032-4.929-5.071   c-0.047-0.001-0.094-0.001-0.141,0h-5v-55c-0.001-2.762-2.241-4.999-5.003-4.998C130.306,182.859,130.258,182.86,130.21,182.861z    M185.352,182.861c-1.275,0.037-2.487,0.56-3.389,1.461l-15,15c-1.976,1.93-2.013,5.095-0.084,7.071   c1.93,1.976,5.095,2.013,7.071,0.084c0.028-0.027,0.056-0.055,0.083-0.083l6.465-6.465v42.928h-10   c-2.761-0.039-5.032,2.168-5.071,4.929c-0.039,2.761,2.168,5.032,4.929,5.071c0.047,0.001,0.094,0.001,0.141,0h14.182   c0.537,0.088,1.084,0.088,1.621,0h9.197c2.761,0.039,5.032-2.168,5.071-4.929c0.039-2.761-2.168-5.032-4.929-5.071   c-0.047-0.001-0.094-0.001-0.141,0h-5v-55c-0.001-2.762-2.241-4.999-5.003-4.998C185.448,182.859,185.4,182.86,185.352,182.861z    M238.142,182.894c-9.609,0-17.5,7.891-17.5,17.5v35c0,9.609,7.891,17.5,17.5,17.5c9.609,0,17.5-7.891,17.5-17.5v-35   C255.642,190.786,247.75,182.894,238.142,182.894z M238.142,192.894c4.241,0,7.5,3.259,7.5,7.5v35c0,4.241-3.259,7.5-7.5,7.5   s-7.5-3.259-7.5-7.5v-35C230.642,196.153,233.9,192.894,238.142,192.894z" transform="matrix(0.43105128268942244 0.16234398575832423 -0.16234398575832423 0.43105128268942244 128.71821557123408 24.201770310517404)" id="L1_5"/><path d="M75.067,2.72c-1.275,0.037-2.487,0.56-3.389,1.461l-15,15c-1.975,1.93-2.012,5.096-0.082,7.071   c1.93,1.975,5.096,2.012,7.071,0.082c0.028-0.027,0.056-0.055,0.083-0.083l6.463-6.463v42.928h-10   c-2.761-0.039-5.032,2.168-5.071,4.929s2.168,5.032,4.929,5.071c0.047,0.001,0.094,0.001,0.141,0h14.182   c0.535,0.088,1.08,0.088,1.615,0h9.203c2.761,0.039,5.032-2.168,5.071-4.929s-2.168-5.032-4.929-5.071   c-0.047-0.001-0.094-0.001-0.141,0h-5v-55c-0.001-2.762-2.241-4.999-5.003-4.998C75.163,2.718,75.115,2.719,75.067,2.72z    M130.21,2.72c-1.275,0.037-2.487,0.56-3.389,1.461l-15,15c-1.992,1.913-2.057,5.078-0.144,7.07s5.078,2.057,7.07,0.144   c0.049-0.047,0.097-0.095,0.144-0.144l6.465-6.465v42.93h-10c-2.761-0.039-5.032,2.168-5.071,4.929   c-0.039,2.761,2.168,5.032,4.929,5.071c0.047,0.001,0.094,0.001,0.141,0h14.182c0.537,0.088,1.084,0.088,1.621,0h9.197   c2.761,0.039,5.032-2.168,5.071-4.929c0.039-2.761-2.168-5.032-4.929-5.071c-0.047-0.001-0.094-0.001-0.141,0h-5v-55   c-0.001-2.762-2.241-4.999-5.003-4.998C130.306,2.718,130.258,2.719,130.21,2.72z M17.571,2.754c-9.609,0-17.5,7.891-17.5,17.5v35   c0,9.609,7.891,17.5,17.5,17.5s17.5-7.891,17.5-17.5v-35C35.071,10.645,27.18,2.754,17.571,2.754z M182.999,2.754   c-9.609,0-17.5,7.891-17.5,17.5v35c0,9.609,7.891,17.5,17.5,17.5s17.5-7.891,17.5-17.5v-35   C200.499,10.645,192.607,2.754,182.999,2.754z M238.142,2.754c-9.609,0-17.5,7.891-17.5,17.5v35c0,9.609,7.891,17.5,17.5,17.5   c9.609,0,17.5-7.891,17.5-17.5v-35C255.642,10.645,247.75,2.754,238.142,2.754z M17.571,12.754c4.241,0,7.5,3.259,7.5,7.5v35   c0,4.241-3.259,7.5-7.5,7.5s-7.5-3.259-7.5-7.5v-35C10.071,16.012,13.33,12.754,17.571,12.754z M182.999,12.754   c4.241,0,7.5,3.259,7.5,7.5v35c0,4.241-3.259,7.5-7.5,7.5s-7.5-3.259-7.5-7.5v-35C175.499,16.012,178.757,12.754,182.999,12.754z    M238.142,12.754c4.241,0,7.5,3.259,7.5,7.5v35c0,4.241-3.259,7.5-7.5,7.5s-7.5-3.259-7.5-7.5v-35   C230.642,16.012,233.9,12.754,238.142,12.754z M19.925,92.791c-1.275,0.037-2.487,0.56-3.389,1.461l-15,15   c-1.952,1.954-1.949,5.121,0.005,7.072c1.952,1.95,5.115,1.95,7.067,0l6.463-6.463v42.928h-10   c-2.761-0.039-5.032,2.168-5.071,4.929c-0.039,2.761,2.168,5.032,4.929,5.071c0.047,0.001,0.094,0.001,0.141,0h14.182   c0.537,0.088,1.084,0.088,1.621,0h9.197c2.761,0.039,5.032-2.168,5.071-4.929c0.039-2.761-2.168-5.032-4.929-5.071   c-0.047-0.001-0.094-0.001-0.141,0h-5v-55c0-2.762-2.239-5-5.001-5C20.022,92.789,19.973,92.789,19.925,92.791z M130.21,92.791   c-1.275,0.037-2.487,0.56-3.389,1.461l-15,15c-1.976,1.93-2.013,5.095-0.084,7.071c1.93,1.976,5.095,2.013,7.071,0.084   c0.028-0.027,0.056-0.055,0.083-0.083l6.465-6.465v42.93h-10c-2.761-0.039-5.032,2.168-5.071,4.929   c-0.039,2.761,2.168,5.032,4.929,5.071c0.047,0.001,0.094,0.001,0.141,0h14.182c0.537,0.088,1.084,0.088,1.621,0h9.197   c2.761,0.039,5.032-2.168,5.071-4.929c0.039-2.761-2.168-5.032-4.929-5.071c-0.047-0.001-0.094-0.001-0.141,0h-5v-55   c0-2.762-2.239-5-5.001-5C130.307,92.789,130.258,92.789,130.21,92.791z M185.352,92.791c-1.275,0.037-2.487,0.56-3.389,1.461   l-15,15c-1.976,1.93-2.013,5.095-0.084,7.071c1.93,1.976,5.095,2.013,7.071,0.084c0.028-0.027,0.056-0.055,0.083-0.083l6.465-6.465   v42.93h-10c-2.761-0.039-5.032,2.168-5.071,4.929c-0.039,2.761,2.168,5.032,4.929,5.071c0.047,0.001,0.094,0.001,0.141,0h14.182   c0.537,0.088,1.084,0.088,1.621,0h9.197c2.761,0.039,5.032-2.168,5.071-4.929c0.039-2.761-2.168-5.032-4.929-5.071   c-0.047-0.001-0.094-0.001-0.141,0h-5v-55c0-2.762-2.239-5-5.001-5C185.45,92.789,185.401,92.789,185.352,92.791z M72.714,92.824   c-9.609,0-17.5,7.891-17.5,17.5v35c0,9.609,7.891,17.5,17.5,17.5s17.5-7.891,17.5-17.5v-35   C90.214,100.715,82.322,92.824,72.714,92.824z M238.142,92.824c-9.609,0-17.5,7.891-17.5,17.5v35c0,9.609,7.891,17.5,17.5,17.5   c9.609,0,17.5-7.891,17.5-17.5v-35C255.642,100.715,247.75,92.824,238.142,92.824z M72.714,102.824c4.241,0,7.5,3.259,7.5,7.5v35   c0,4.241-3.259,7.5-7.5,7.5s-7.5-3.259-7.5-7.5v-35C65.214,106.082,68.472,102.824,72.714,102.824z M238.142,102.824   c4.241,0,7.5,3.259,7.5,7.5v35c0,4.241-3.259,7.5-7.5,7.5s-7.5-3.259-7.5-7.5v-35C230.642,106.082,233.9,102.824,238.142,102.824z    M19.925,182.861c-1.275,0.037-2.487,0.56-3.389,1.461l-15,15c-1.953,1.953-1.953,5.119,0,7.072s5.119,1.953,7.072,0l6.463-6.463   v42.926h-10c-2.761-0.039-5.032,2.168-5.071,4.929c-0.039,2.761,2.168,5.032,4.929,5.071c0.047,0.001,0.094,0.001,0.141,0h14.182   c0.537,0.088,1.084,0.088,1.621,0h9.197c2.761,0.039,5.032-2.168,5.071-4.929c0.039-2.761-2.168-5.032-4.929-5.071   c-0.047-0.001-0.094-0.001-0.141,0h-5v-55c-0.001-2.762-2.241-4.999-5.003-4.998C20.021,182.859,19.973,182.86,19.925,182.861z    M75.067,182.861c-1.275,0.037-2.487,0.56-3.389,1.461l-15,15c-1.953,1.953-1.953,5.119,0,7.072s5.119,1.953,7.072,0l6.463-6.463   v42.926h-10c-2.761-0.039-5.032,2.168-5.071,4.929c-0.039,2.761,2.168,5.032,4.929,5.071c0.047,0.001,0.094,0.001,0.141,0h14.182   c0.535,0.088,1.08,0.088,1.615,0h9.203c2.761,0.039,5.032-2.168,5.071-4.929c0.039-2.761-2.168-5.032-4.929-5.071   c-0.047-0.001-0.094-0.001-0.141,0h-5v-55c-0.001-2.762-2.241-4.999-5.003-4.998C75.163,182.859,75.115,182.86,75.067,182.861z    M130.21,182.861c-1.275,0.037-2.487,0.56-3.389,1.461l-15,15c-1.976,1.93-2.013,5.095-0.084,7.071   c1.93,1.976,5.095,2.013,7.071,0.084c0.028-0.027,0.056-0.055,0.083-0.083l6.465-6.465v42.928h-10   c-2.761-0.039-5.032,2.168-5.071,4.929c-0.039,2.761,2.168,5.032,4.929,5.071c0.047,0.001,0.094,0.001,0.141,0h14.182   c0.537,0.088,1.084,0.088,1.621,0h9.197c2.761,0.039,5.032-2.168,5.071-4.929c0.039-2.761-2.168-5.032-4.929-5.071   c-0.047-0.001-0.094-0.001-0.141,0h-5v-55c-0.001-2.762-2.241-4.999-5.003-4.998C130.306,182.859,130.258,182.86,130.21,182.861z    M185.352,182.861c-1.275,0.037-2.487,0.56-3.389,1.461l-15,15c-1.976,1.93-2.013,5.095-0.084,7.071   c1.93,1.976,5.095,2.013,7.071,0.084c0.028-0.027,0.056-0.055,0.083-0.083l6.465-6.465v42.928h-10   c-2.761-0.039-5.032,2.168-5.071,4.929c-0.039,2.761,2.168,5.032,4.929,5.071c0.047,0.001,0.094,0.001,0.141,0h14.182   c0.537,0.088,1.084,0.088,1.621,0h9.197c2.761,0.039,5.032-2.168,5.071-4.929c0.039-2.761-2.168-5.032-4.929-5.071   c-0.047-0.001-0.094-0.001-0.141,0h-5v-55c-0.001-2.762-2.241-4.999-5.003-4.998C185.448,182.859,185.4,182.86,185.352,182.861z    M238.142,182.894c-9.609,0-17.5,7.891-17.5,17.5v35c0,9.609,7.891,17.5,17.5,17.5c9.609,0,17.5-7.891,17.5-17.5v-35   C255.642,190.786,247.75,182.894,238.142,182.894z M238.142,192.894c4.241,0,7.5,3.259,7.5,7.5v35c0,4.241-3.259,7.5-7.5,7.5   s-7.5-3.259-7.5-7.5v-35C230.642,196.153,233.9,192.894,238.142,192.894z" transform="matrix(0.28550149926939095 -0.12875557588886352 0.12875557588886352 0.28550149926939095 223.0642643111705 217.92273952395158)" id="L1_7"/><path d="M75.067,2.72c-1.275,0.037-2.487,0.56-3.389,1.461l-15,15c-1.975,1.93-2.012,5.096-0.082,7.071   c1.93,1.975,5.096,2.012,7.071,0.082c0.028-0.027,0.056-0.055,0.083-0.083l6.463-6.463v42.928h-10   c-2.761-0.039-5.032,2.168-5.071,4.929s2.168,5.032,4.929,5.071c0.047,0.001,0.094,0.001,0.141,0h14.182   c0.535,0.088,1.08,0.088,1.615,0h9.203c2.761,0.039,5.032-2.168,5.071-4.929s-2.168-5.032-4.929-5.071   c-0.047-0.001-0.094-0.001-0.141,0h-5v-55c-0.001-2.762-2.241-4.999-5.003-4.998C75.163,2.718,75.115,2.719,75.067,2.72z    M130.21,2.72c-1.275,0.037-2.487,0.56-3.389,1.461l-15,15c-1.992,1.913-2.057,5.078-0.144,7.07s5.078,2.057,7.07,0.144   c0.049-0.047,0.097-0.095,0.144-0.144l6.465-6.465v42.93h-10c-2.761-0.039-5.032,2.168-5.071,4.929   c-0.039,2.761,2.168,5.032,4.929,5.071c0.047,0.001,0.094,0.001,0.141,0h14.182c0.537,0.088,1.084,0.088,1.621,0h9.197   c2.761,0.039,5.032-2.168,5.071-4.929c0.039-2.761-2.168-5.032-4.929-5.071c-0.047-0.001-0.094-0.001-0.141,0h-5v-55   c-0.001-2.762-2.241-4.999-5.003-4.998C130.306,2.718,130.258,2.719,130.21,2.72z M17.571,2.754c-9.609,0-17.5,7.891-17.5,17.5v35   c0,9.609,7.891,17.5,17.5,17.5s17.5-7.891,17.5-17.5v-35C35.071,10.645,27.18,2.754,17.571,2.754z M182.999,2.754   c-9.609,0-17.5,7.891-17.5,17.5v35c0,9.609,7.891,17.5,17.5,17.5s17.5-7.891,17.5-17.5v-35   C200.499,10.645,192.607,2.754,182.999,2.754z M238.142,2.754c-9.609,0-17.5,7.891-17.5,17.5v35c0,9.609,7.891,17.5,17.5,17.5   c9.609,0,17.5-7.891,17.5-17.5v-35C255.642,10.645,247.75,2.754,238.142,2.754z M17.571,12.754c4.241,0,7.5,3.259,7.5,7.5v35   c0,4.241-3.259,7.5-7.5,7.5s-7.5-3.259-7.5-7.5v-35C10.071,16.012,13.33,12.754,17.571,12.754z M182.999,12.754   c4.241,0,7.5,3.259,7.5,7.5v35c0,4.241-3.259,7.5-7.5,7.5s-7.5-3.259-7.5-7.5v-35C175.499,16.012,178.757,12.754,182.999,12.754z    M238.142,12.754c4.241,0,7.5,3.259,7.5,7.5v35c0,4.241-3.259,7.5-7.5,7.5s-7.5-3.259-7.5-7.5v-35   C230.642,16.012,233.9,12.754,238.142,12.754z M19.925,92.791c-1.275,0.037-2.487,0.56-3.389,1.461l-15,15   c-1.952,1.954-1.949,5.121,0.005,7.072c1.952,1.95,5.115,1.95,7.067,0l6.463-6.463v42.928h-10   c-2.761-0.039-5.032,2.168-5.071,4.929c-0.039,2.761,2.168,5.032,4.929,5.071c0.047,0.001,0.094,0.001,0.141,0h14.182   c0.537,0.088,1.084,0.088,1.621,0h9.197c2.761,0.039,5.032-2.168,5.071-4.929c0.039-2.761-2.168-5.032-4.929-5.071   c-0.047-0.001-0.094-0.001-0.141,0h-5v-55c0-2.762-2.239-5-5.001-5C20.022,92.789,19.973,92.789,19.925,92.791z M130.21,92.791   c-1.275,0.037-2.487,0.56-3.389,1.461l-15,15c-1.976,1.93-2.013,5.095-0.084,7.071c1.93,1.976,5.095,2.013,7.071,0.084   c0.028-0.027,0.056-0.055,0.083-0.083l6.465-6.465v42.93h-10c-2.761-0.039-5.032,2.168-5.071,4.929   c-0.039,2.761,2.168,5.032,4.929,5.071c0.047,0.001,0.094,0.001,0.141,0h14.182c0.537,0.088,1.084,0.088,1.621,0h9.197   c2.761,0.039,5.032-2.168,5.071-4.929c0.039-2.761-2.168-5.032-4.929-5.071c-0.047-0.001-0.094-0.001-0.141,0h-5v-55   c0-2.762-2.239-5-5.001-5C130.307,92.789,130.258,92.789,130.21,92.791z M185.352,92.791c-1.275,0.037-2.487,0.56-3.389,1.461   l-15,15c-1.976,1.93-2.013,5.095-0.084,7.071c1.93,1.976,5.095,2.013,7.071,0.084c0.028-0.027,0.056-0.055,0.083-0.083l6.465-6.465   v42.93h-10c-2.761-0.039-5.032,2.168-5.071,4.929c-0.039,2.761,2.168,5.032,4.929,5.071c0.047,0.001,0.094,0.001,0.141,0h14.182   c0.537,0.088,1.084,0.088,1.621,0h9.197c2.761,0.039,5.032-2.168,5.071-4.929c0.039-2.761-2.168-5.032-4.929-5.071   c-0.047-0.001-0.094-0.001-0.141,0h-5v-55c0-2.762-2.239-5-5.001-5C185.45,92.789,185.401,92.789,185.352,92.791z M72.714,92.824   c-9.609,0-17.5,7.891-17.5,17.5v35c0,9.609,7.891,17.5,17.5,17.5s17.5-7.891,17.5-17.5v-35   C90.214,100.715,82.322,92.824,72.714,92.824z M238.142,92.824c-9.609,0-17.5,7.891-17.5,17.5v35c0,9.609,7.891,17.5,17.5,17.5   c9.609,0,17.5-7.891,17.5-17.5v-35C255.642,100.715,247.75,92.824,238.142,92.824z M72.714,102.824c4.241,0,7.5,3.259,7.5,7.5v35   c0,4.241-3.259,7.5-7.5,7.5s-7.5-3.259-7.5-7.5v-35C65.214,106.082,68.472,102.824,72.714,102.824z M238.142,102.824   c4.241,0,7.5,3.259,7.5,7.5v35c0,4.241-3.259,7.5-7.5,7.5s-7.5-3.259-7.5-7.5v-35C230.642,106.082,233.9,102.824,238.142,102.824z    M19.925,182.861c-1.275,0.037-2.487,0.56-3.389,1.461l-15,15c-1.953,1.953-1.953,5.119,0,7.072s5.119,1.953,7.072,0l6.463-6.463   v42.926h-10c-2.761-0.039-5.032,2.168-5.071,4.929c-0.039,2.761,2.168,5.032,4.929,5.071c0.047,0.001,0.094,0.001,0.141,0h14.182   c0.537,0.088,1.084,0.088,1.621,0h9.197c2.761,0.039,5.032-2.168,5.071-4.929c0.039-2.761-2.168-5.032-4.929-5.071   c-0.047-0.001-0.094-0.001-0.141,0h-5v-55c-0.001-2.762-2.241-4.999-5.003-4.998C20.021,182.859,19.973,182.86,19.925,182.861z    M75.067,182.861c-1.275,0.037-2.487,0.56-3.389,1.461l-15,15c-1.953,1.953-1.953,5.119,0,7.072s5.119,1.953,7.072,0l6.463-6.463   v42.926h-10c-2.761-0.039-5.032,2.168-5.071,4.929c-0.039,2.761,2.168,5.032,4.929,5.071c0.047,0.001,0.094,0.001,0.141,0h14.182   c0.535,0.088,1.08,0.088,1.615,0h9.203c2.761,0.039,5.032-2.168,5.071-4.929c0.039-2.761-2.168-5.032-4.929-5.071   c-0.047-0.001-0.094-0.001-0.141,0h-5v-55c-0.001-2.762-2.241-4.999-5.003-4.998C75.163,182.859,75.115,182.86,75.067,182.861z    M130.21,182.861c-1.275,0.037-2.487,0.56-3.389,1.461l-15,15c-1.976,1.93-2.013,5.095-0.084,7.071   c1.93,1.976,5.095,2.013,7.071,0.084c0.028-0.027,0.056-0.055,0.083-0.083l6.465-6.465v42.928h-10   c-2.761-0.039-5.032,2.168-5.071,4.929c-0.039,2.761,2.168,5.032,4.929,5.071c0.047,0.001,0.094,0.001,0.141,0h14.182   c0.537,0.088,1.084,0.088,1.621,0h9.197c2.761,0.039,5.032-2.168,5.071-4.929c0.039-2.761-2.168-5.032-4.929-5.071   c-0.047-0.001-0.094-0.001-0.141,0h-5v-55c-0.001-2.762-2.241-4.999-5.003-4.998C130.306,182.859,130.258,182.86,130.21,182.861z    M185.352,182.861c-1.275,0.037-2.487,0.56-3.389,1.461l-15,15c-1.976,1.93-2.013,5.095-0.084,7.071   c1.93,1.976,5.095,2.013,7.071,0.084c0.028-0.027,0.056-0.055,0.083-0.083l6.465-6.465v42.928h-10   c-2.761-0.039-5.032,2.168-5.071,4.929c-0.039,2.761,2.168,5.032,4.929,5.071c0.047,0.001,0.094,0.001,0.141,0h14.182   c0.537,0.088,1.084,0.088,1.621,0h9.197c2.761,0.039,5.032-2.168,5.071-4.929c0.039-2.761-2.168-5.032-4.929-5.071   c-0.047-0.001-0.094-0.001-0.141,0h-5v-55c-0.001-2.762-2.241-4.999-5.003-4.998C185.448,182.859,185.4,182.86,185.352,182.861z    M238.142,182.894c-9.609,0-17.5,7.891-17.5,17.5v35c0,9.609,7.891,17.5,17.5,17.5c9.609,0,17.5-7.891,17.5-17.5v-35   C255.642,190.786,247.75,182.894,238.142,182.894z M238.142,192.894c4.241,0,7.5,3.259,7.5,7.5v35c0,4.241-3.259,7.5-7.5,7.5   s-7.5-3.259-7.5-7.5v-35C230.642,196.153,233.9,192.894,238.142,192.894z" transform="matrix(0.16234399307267158 0.016794206659202948 -0.016794206659202948 0.16234399307267158 95.37262081223663 231.10848967430724)" id="L1_9"/><path d="M75.067,2.72c-1.275,0.037-2.487,0.56-3.389,1.461l-15,15c-1.975,1.93-2.012,5.096-0.082,7.071   c1.93,1.975,5.096,2.012,7.071,0.082c0.028-0.027,0.056-0.055,0.083-0.083l6.463-6.463v42.928h-10   c-2.761-0.039-5.032,2.168-5.071,4.929s2.168,5.032,4.929,5.071c0.047,0.001,0.094,0.001,0.141,0h14.182   c0.535,0.088,1.08,0.088,1.615,0h9.203c2.761,0.039,5.032-2.168,5.071-4.929s-2.168-5.032-4.929-5.071   c-0.047-0.001-0.094-0.001-0.141,0h-5v-55c-0.001-2.762-2.241-4.999-5.003-4.998C75.163,2.718,75.115,2.719,75.067,2.72z    M130.21,2.72c-1.275,0.037-2.487,0.56-3.389,1.461l-15,15c-1.992,1.913-2.057,5.078-0.144,7.07s5.078,2.057,7.07,0.144   c0.049-0.047,0.097-0.095,0.144-0.144l6.465-6.465v42.93h-10c-2.761-0.039-5.032,2.168-5.071,4.929   c-0.039,2.761,2.168,5.032,4.929,5.071c0.047,0.001,0.094,0.001,0.141,0h14.182c0.537,0.088,1.084,0.088,1.621,0h9.197   c2.761,0.039,5.032-2.168,5.071-4.929c0.039-2.761-2.168-5.032-4.929-5.071c-0.047-0.001-0.094-0.001-0.141,0h-5v-55   c-0.001-2.762-2.241-4.999-5.003-4.998C130.306,2.718,130.258,2.719,130.21,2.72z M17.571,2.754c-9.609,0-17.5,7.891-17.5,17.5v35   c0,9.609,7.891,17.5,17.5,17.5s17.5-7.891,17.5-17.5v-35C35.071,10.645,27.18,2.754,17.571,2.754z M182.999,2.754   c-9.609,0-17.5,7.891-17.5,17.5v35c0,9.609,7.891,17.5,17.5,17.5s17.5-7.891,17.5-17.5v-35   C200.499,10.645,192.607,2.754,182.999,2.754z M238.142,2.754c-9.609,0-17.5,7.891-17.5,17.5v35c0,9.609,7.891,17.5,17.5,17.5   c9.609,0,17.5-7.891,17.5-17.5v-35C255.642,10.645,247.75,2.754,238.142,2.754z M17.571,12.754c4.241,0,7.5,3.259,7.5,7.5v35   c0,4.241-3.259,7.5-7.5,7.5s-7.5-3.259-7.5-7.5v-35C10.071,16.012,13.33,12.754,17.571,12.754z M182.999,12.754   c4.241,0,7.5,3.259,7.5,7.5v35c0,4.241-3.259,7.5-7.5,7.5s-7.5-3.259-7.5-7.5v-35C175.499,16.012,178.757,12.754,182.999,12.754z    M238.142,12.754c4.241,0,7.5,3.259,7.5,7.5v35c0,4.241-3.259,7.5-7.5,7.5s-7.5-3.259-7.5-7.5v-35   C230.642,16.012,233.9,12.754,238.142,12.754z M19.925,92.791c-1.275,0.037-2.487,0.56-3.389,1.461l-15,15   c-1.952,1.954-1.949,5.121,0.005,7.072c1.952,1.95,5.115,1.95,7.067,0l6.463-6.463v42.928h-10   c-2.761-0.039-5.032,2.168-5.071,4.929c-0.039,2.761,2.168,5.032,4.929,5.071c0.047,0.001,0.094,0.001,0.141,0h14.182   c0.537,0.088,1.084,0.088,1.621,0h9.197c2.761,0.039,5.032-2.168,5.071-4.929c0.039-2.761-2.168-5.032-4.929-5.071   c-0.047-0.001-0.094-0.001-0.141,0h-5v-55c0-2.762-2.239-5-5.001-5C20.022,92.789,19.973,92.789,19.925,92.791z M130.21,92.791   c-1.275,0.037-2.487,0.56-3.389,1.461l-15,15c-1.976,1.93-2.013,5.095-0.084,7.071c1.93,1.976,5.095,2.013,7.071,0.084   c0.028-0.027,0.056-0.055,0.083-0.083l6.465-6.465v42.93h-10c-2.761-0.039-5.032,2.168-5.071,4.929   c-0.039,2.761,2.168,5.032,4.929,5.071c0.047,0.001,0.094,0.001,0.141,0h14.182c0.537,0.088,1.084,0.088,1.621,0h9.197   c2.761,0.039,5.032-2.168,5.071-4.929c0.039-2.761-2.168-5.032-4.929-5.071c-0.047-0.001-0.094-0.001-0.141,0h-5v-55   c0-2.762-2.239-5-5.001-5C130.307,92.789,130.258,92.789,130.21,92.791z M185.352,92.791c-1.275,0.037-2.487,0.56-3.389,1.461   l-15,15c-1.976,1.93-2.013,5.095-0.084,7.071c1.93,1.976,5.095,2.013,7.071,0.084c0.028-0.027,0.056-0.055,0.083-0.083l6.465-6.465   v42.93h-10c-2.761-0.039-5.032,2.168-5.071,4.929c-0.039,2.761,2.168,5.032,4.929,5.071c0.047,0.001,0.094,0.001,0.141,0h14.182   c0.537,0.088,1.084,0.088,1.621,0h9.197c2.761,0.039,5.032-2.168,5.071-4.929c0.039-2.761-2.168-5.032-4.929-5.071   c-0.047-0.001-0.094-0.001-0.141,0h-5v-55c0-2.762-2.239-5-5.001-5C185.45,92.789,185.401,92.789,185.352,92.791z M72.714,92.824   c-9.609,0-17.5,7.891-17.5,17.5v35c0,9.609,7.891,17.5,17.5,17.5s17.5-7.891,17.5-17.5v-35   C90.214,100.715,82.322,92.824,72.714,92.824z M238.142,92.824c-9.609,0-17.5,7.891-17.5,17.5v35c0,9.609,7.891,17.5,17.5,17.5   c9.609,0,17.5-7.891,17.5-17.5v-35C255.642,100.715,247.75,92.824,238.142,92.824z M72.714,102.824c4.241,0,7.5,3.259,7.5,7.5v35   c0,4.241-3.259,7.5-7.5,7.5s-7.5-3.259-7.5-7.5v-35C65.214,106.082,68.472,102.824,72.714,102.824z M238.142,102.824   c4.241,0,7.5,3.259,7.5,7.5v35c0,4.241-3.259,7.5-7.5,7.5s-7.5-3.259-7.5-7.5v-35C230.642,106.082,233.9,102.824,238.142,102.824z    M19.925,182.861c-1.275,0.037-2.487,0.56-3.389,1.461l-15,15c-1.953,1.953-1.953,5.119,0,7.072s5.119,1.953,7.072,0l6.463-6.463   v42.926h-10c-2.761-0.039-5.032,2.168-5.071,4.929c-0.039,2.761,2.168,5.032,4.929,5.071c0.047,0.001,0.094,0.001,0.141,0h14.182   c0.537,0.088,1.084,0.088,1.621,0h9.197c2.761,0.039,5.032-2.168,5.071-4.929c0.039-2.761-2.168-5.032-4.929-5.071   c-0.047-0.001-0.094-0.001-0.141,0h-5v-55c-0.001-2.762-2.241-4.999-5.003-4.998C20.021,182.859,19.973,182.86,19.925,182.861z    M75.067,182.861c-1.275,0.037-2.487,0.56-3.389,1.461l-15,15c-1.953,1.953-1.953,5.119,0,7.072s5.119,1.953,7.072,0l6.463-6.463   v42.926h-10c-2.761-0.039-5.032,2.168-5.071,4.929c-0.039,2.761,2.168,5.032,4.929,5.071c0.047,0.001,0.094,0.001,0.141,0h14.182   c0.535,0.088,1.08,0.088,1.615,0h9.203c2.761,0.039,5.032-2.168,5.071-4.929c0.039-2.761-2.168-5.032-4.929-5.071   c-0.047-0.001-0.094-0.001-0.141,0h-5v-55c-0.001-2.762-2.241-4.999-5.003-4.998C75.163,182.859,75.115,182.86,75.067,182.861z    M130.21,182.861c-1.275,0.037-2.487,0.56-3.389,1.461l-15,15c-1.976,1.93-2.013,5.095-0.084,7.071   c1.93,1.976,5.095,2.013,7.071,0.084c0.028-0.027,0.056-0.055,0.083-0.083l6.465-6.465v42.928h-10   c-2.761-0.039-5.032,2.168-5.071,4.929c-0.039,2.761,2.168,5.032,4.929,5.071c0.047,0.001,0.094,0.001,0.141,0h14.182   c0.537,0.088,1.084,0.088,1.621,0h9.197c2.761,0.039,5.032-2.168,5.071-4.929c0.039-2.761-2.168-5.032-4.929-5.071   c-0.047-0.001-0.094-0.001-0.141,0h-5v-55c-0.001-2.762-2.241-4.999-5.003-4.998C130.306,182.859,130.258,182.86,130.21,182.861z    M185.352,182.861c-1.275,0.037-2.487,0.56-3.389,1.461l-15,15c-1.976,1.93-2.013,5.095-0.084,7.071   c1.93,1.976,5.095,2.013,7.071,0.084c0.028-0.027,0.056-0.055,0.083-0.083l6.465-6.465v42.928h-10   c-2.761-0.039-5.032,2.168-5.071,4.929c-0.039,2.761,2.168,5.032,4.929,5.071c0.047,0.001,0.094,0.001,0.141,0h14.182   c0.537,0.088,1.084,0.088,1.621,0h9.197c2.761,0.039,5.032-2.168,5.071-4.929c0.039-2.761-2.168-5.032-4.929-5.071   c-0.047-0.001-0.094-0.001-0.141,0h-5v-55c-0.001-2.762-2.241-4.999-5.003-4.998C185.448,182.859,185.4,182.86,185.352,182.861z    M238.142,182.894c-9.609,0-17.5,7.891-17.5,17.5v35c0,9.609,7.891,17.5,17.5,17.5c9.609,0,17.5-7.891,17.5-17.5v-35   C255.642,190.786,247.75,182.894,238.142,182.894z M238.142,192.894c4.241,0,7.5,3.259,7.5,7.5v35c0,4.241-3.259,7.5-7.5,7.5   s-7.5-3.259-7.5-7.5v-35C230.642,196.153,233.9,192.894,238.142,192.894z" transform="matrix(0.240716947183123 0.07277488796156269 -0.07277488796156269 0.240716947183123 291.5361356849428 66.95245889313357)" id="L1_11"/><path d="M75.067,2.72c-1.275,0.037-2.487,0.56-3.389,1.461l-15,15c-1.975,1.93-2.012,5.096-0.082,7.071   c1.93,1.975,5.096,2.012,7.071,0.082c0.028-0.027,0.056-0.055,0.083-0.083l6.463-6.463v42.928h-10   c-2.761-0.039-5.032,2.168-5.071,4.929s2.168,5.032,4.929,5.071c0.047,0.001,0.094,0.001,0.141,0h14.182   c0.535,0.088,1.08,0.088,1.615,0h9.203c2.761,0.039,5.032-2.168,5.071-4.929s-2.168-5.032-4.929-5.071   c-0.047-0.001-0.094-0.001-0.141,0h-5v-55c-0.001-2.762-2.241-4.999-5.003-4.998C75.163,2.718,75.115,2.719,75.067,2.72z    M130.21,2.72c-1.275,0.037-2.487,0.56-3.389,1.461l-15,15c-1.992,1.913-2.057,5.078-0.144,7.07s5.078,2.057,7.07,0.144   c0.049-0.047,0.097-0.095,0.144-0.144l6.465-6.465v42.93h-10c-2.761-0.039-5.032,2.168-5.071,4.929   c-0.039,2.761,2.168,5.032,4.929,5.071c0.047,0.001,0.094,0.001,0.141,0h14.182c0.537,0.088,1.084,0.088,1.621,0h9.197   c2.761,0.039,5.032-2.168,5.071-4.929c0.039-2.761-2.168-5.032-4.929-5.071c-0.047-0.001-0.094-0.001-0.141,0h-5v-55   c-0.001-2.762-2.241-4.999-5.003-4.998C130.306,2.718,130.258,2.719,130.21,2.72z M17.571,2.754c-9.609,0-17.5,7.891-17.5,17.5v35   c0,9.609,7.891,17.5,17.5,17.5s17.5-7.891,17.5-17.5v-35C35.071,10.645,27.18,2.754,17.571,2.754z M182.999,2.754   c-9.609,0-17.5,7.891-17.5,17.5v35c0,9.609,7.891,17.5,17.5,17.5s17.5-7.891,17.5-17.5v-35   C200.499,10.645,192.607,2.754,182.999,2.754z M238.142,2.754c-9.609,0-17.5,7.891-17.5,17.5v35c0,9.609,7.891,17.5,17.5,17.5   c9.609,0,17.5-7.891,17.5-17.5v-35C255.642,10.645,247.75,2.754,238.142,2.754z M17.571,12.754c4.241,0,7.5,3.259,7.5,7.5v35   c0,4.241-3.259,7.5-7.5,7.5s-7.5-3.259-7.5-7.5v-35C10.071,16.012,13.33,12.754,17.571,12.754z M182.999,12.754   c4.241,0,7.5,3.259,7.5,7.5v35c0,4.241-3.259,7.5-7.5,7.5s-7.5-3.259-7.5-7.5v-35C175.499,16.012,178.757,12.754,182.999,12.754z    M238.142,12.754c4.241,0,7.5,3.259,7.5,7.5v35c0,4.241-3.259,7.5-7.5,7.5s-7.5-3.259-7.5-7.5v-35   C230.642,16.012,233.9,12.754,238.142,12.754z M19.925,92.791c-1.275,0.037-2.487,0.56-3.389,1.461l-15,15   c-1.952,1.954-1.949,5.121,0.005,7.072c1.952,1.95,5.115,1.95,7.067,0l6.463-6.463v42.928h-10   c-2.761-0.039-5.032,2.168-5.071,4.929c-0.039,2.761,2.168,5.032,4.929,5.071c0.047,0.001,0.094,0.001,0.141,0h14.182   c0.537,0.088,1.084,0.088,1.621,0h9.197c2.761,0.039,5.032-2.168,5.071-4.929c0.039-2.761-2.168-5.032-4.929-5.071   c-0.047-0.001-0.094-0.001-0.141,0h-5v-55c0-2.762-2.239-5-5.001-5C20.022,92.789,19.973,92.789,19.925,92.791z M130.21,92.791   c-1.275,0.037-2.487,0.56-3.389,1.461l-15,15c-1.976,1.93-2.013,5.095-0.084,7.071c1.93,1.976,5.095,2.013,7.071,0.084   c0.028-0.027,0.056-0.055,0.083-0.083l6.465-6.465v42.93h-10c-2.761-0.039-5.032,2.168-5.071,4.929   c-0.039,2.761,2.168,5.032,4.929,5.071c0.047,0.001,0.094,0.001,0.141,0h14.182c0.537,0.088,1.084,0.088,1.621,0h9.197   c2.761,0.039,5.032-2.168,5.071-4.929c0.039-2.761-2.168-5.032-4.929-5.071c-0.047-0.001-0.094-0.001-0.141,0h-5v-55   c0-2.762-2.239-5-5.001-5C130.307,92.789,130.258,92.789,130.21,92.791z M185.352,92.791c-1.275,0.037-2.487,0.56-3.389,1.461   l-15,15c-1.976,1.93-2.013,5.095-0.084,7.071c1.93,1.976,5.095,2.013,7.071,0.084c0.028-0.027,0.056-0.055,0.083-0.083l6.465-6.465   v42.93h-10c-2.761-0.039-5.032,2.168-5.071,4.929c-0.039,2.761,2.168,5.032,4.929,5.071c0.047,0.001,0.094,0.001,0.141,0h14.182   c0.537,0.088,1.084,0.088,1.621,0h9.197c2.761,0.039,5.032-2.168,5.071-4.929c0.039-2.761-2.168-5.032-4.929-5.071   c-0.047-0.001-0.094-0.001-0.141,0h-5v-55c0-2.762-2.239-5-5.001-5C185.45,92.789,185.401,92.789,185.352,92.791z M72.714,92.824   c-9.609,0-17.5,7.891-17.5,17.5v35c0,9.609,7.891,17.5,17.5,17.5s17.5-7.891,17.5-17.5v-35   C90.214,100.715,82.322,92.824,72.714,92.824z M238.142,92.824c-9.609,0-17.5,7.891-17.5,17.5v35c0,9.609,7.891,17.5,17.5,17.5   c9.609,0,17.5-7.891,17.5-17.5v-35C255.642,100.715,247.75,92.824,238.142,92.824z M72.714,102.824c4.241,0,7.5,3.259,7.5,7.5v35   c0,4.241-3.259,7.5-7.5,7.5s-7.5-3.259-7.5-7.5v-35C65.214,106.082,68.472,102.824,72.714,102.824z M238.142,102.824   c4.241,0,7.5,3.259,7.5,7.5v35c0,4.241-3.259,7.5-7.5,7.5s-7.5-3.259-7.5-7.5v-35C230.642,106.082,233.9,102.824,238.142,102.824z    M19.925,182.861c-1.275,0.037-2.487,0.56-3.389,1.461l-15,15c-1.953,1.953-1.953,5.119,0,7.072s5.119,1.953,7.072,0l6.463-6.463   v42.926h-10c-2.761-0.039-5.032,2.168-5.071,4.929c-0.039,2.761,2.168,5.032,4.929,5.071c0.047,0.001,0.094,0.001,0.141,0h14.182   c0.537,0.088,1.084,0.088,1.621,0h9.197c2.761,0.039,5.032-2.168,5.071-4.929c0.039-2.761-2.168-5.032-4.929-5.071   c-0.047-0.001-0.094-0.001-0.141,0h-5v-55c-0.001-2.762-2.241-4.999-5.003-4.998C20.021,182.859,19.973,182.86,19.925,182.861z    M75.067,182.861c-1.275,0.037-2.487,0.56-3.389,1.461l-15,15c-1.953,1.953-1.953,5.119,0,7.072s5.119,1.953,7.072,0l6.463-6.463   v42.926h-10c-2.761-0.039-5.032,2.168-5.071,4.929c-0.039,2.761,2.168,5.032,4.929,5.071c0.047,0.001,0.094,0.001,0.141,0h14.182   c0.535,0.088,1.08,0.088,1.615,0h9.203c2.761,0.039,5.032-2.168,5.071-4.929c0.039-2.761-2.168-5.032-4.929-5.071   c-0.047-0.001-0.094-0.001-0.141,0h-5v-55c-0.001-2.762-2.241-4.999-5.003-4.998C75.163,182.859,75.115,182.86,75.067,182.861z    M130.21,182.861c-1.275,0.037-2.487,0.56-3.389,1.461l-15,15c-1.976,1.93-2.013,5.095-0.084,7.071   c1.93,1.976,5.095,2.013,7.071,0.084c0.028-0.027,0.056-0.055,0.083-0.083l6.465-6.465v42.928h-10   c-2.761-0.039-5.032,2.168-5.071,4.929c-0.039,2.761,2.168,5.032,4.929,5.071c0.047,0.001,0.094,0.001,0.141,0h14.182   c0.537,0.088,1.084,0.088,1.621,0h9.197c2.761,0.039,5.032-2.168,5.071-4.929c0.039-2.761-2.168-5.032-4.929-5.071   c-0.047-0.001-0.094-0.001-0.141,0h-5v-55c-0.001-2.762-2.241-4.999-5.003-4.998C130.306,182.859,130.258,182.86,130.21,182.861z    M185.352,182.861c-1.275,0.037-2.487,0.56-3.389,1.461l-15,15c-1.976,1.93-2.013,5.095-0.084,7.071   c1.93,1.976,5.095,2.013,7.071,0.084c0.028-0.027,0.056-0.055,0.083-0.083l6.465-6.465v42.928h-10   c-2.761-0.039-5.032,2.168-5.071,4.929c-0.039,2.761,2.168,5.032,4.929,5.071c0.047,0.001,0.094,0.001,0.141,0h14.182   c0.537,0.088,1.084,0.088,1.621,0h9.197c2.761,0.039,5.032-2.168,5.071-4.929c0.039-2.761-2.168-5.032-4.929-5.071   c-0.047-0.001-0.094-0.001-0.141,0h-5v-55c-0.001-2.762-2.241-4.999-5.003-4.998C185.448,182.859,185.4,182.86,185.352,182.861z    M238.142,182.894c-9.609,0-17.5,7.891-17.5,17.5v35c0,9.609,7.891,17.5,17.5,17.5c9.609,0,17.5-7.891,17.5-17.5v-35   C255.642,190.786,247.75,182.894,238.142,182.894z M238.142,192.894c4.241,0,7.5,3.259,7.5,7.5v35c0,4.241-3.259,7.5-7.5,7.5   s-7.5-3.259-7.5-7.5v-35C230.642,196.153,233.9,192.894,238.142,192.894z" transform="matrix(0.14006362923000987 -0.14006362923000984 0.14006362923000984 0.14006362923000987 177.16207296004552 341.95598487636516)" id="L1_13"/><path d="M75.067,2.72c-1.275,0.037-2.487,0.56-3.389,1.461l-15,15c-1.975,1.93-2.012,5.096-0.082,7.071   c1.93,1.975,5.096,2.012,7.071,0.082c0.028-0.027,0.056-0.055,0.083-0.083l6.463-6.463v42.928h-10   c-2.761-0.039-5.032,2.168-5.071,4.929s2.168,5.032,4.929,5.071c0.047,0.001,0.094,0.001,0.141,0h14.182   c0.535,0.088,1.08,0.088,1.615,0h9.203c2.761,0.039,5.032-2.168,5.071-4.929s-2.168-5.032-4.929-5.071   c-0.047-0.001-0.094-0.001-0.141,0h-5v-55c-0.001-2.762-2.241-4.999-5.003-4.998C75.163,2.718,75.115,2.719,75.067,2.72z    M130.21,2.72c-1.275,0.037-2.487,0.56-3.389,1.461l-15,15c-1.992,1.913-2.057,5.078-0.144,7.07s5.078,2.057,7.07,0.144   c0.049-0.047,0.097-0.095,0.144-0.144l6.465-6.465v42.93h-10c-2.761-0.039-5.032,2.168-5.071,4.929   c-0.039,2.761,2.168,5.032,4.929,5.071c0.047,0.001,0.094,0.001,0.141,0h14.182c0.537,0.088,1.084,0.088,1.621,0h9.197   c2.761,0.039,5.032-2.168,5.071-4.929c0.039-2.761-2.168-5.032-4.929-5.071c-0.047-0.001-0.094-0.001-0.141,0h-5v-55   c-0.001-2.762-2.241-4.999-5.003-4.998C130.306,2.718,130.258,2.719,130.21,2.72z M17.571,2.754c-9.609,0-17.5,7.891-17.5,17.5v35   c0,9.609,7.891,17.5,17.5,17.5s17.5-7.891,17.5-17.5v-35C35.071,10.645,27.18,2.754,17.571,2.754z M182.999,2.754   c-9.609,0-17.5,7.891-17.5,17.5v35c0,9.609,7.891,17.5,17.5,17.5s17.5-7.891,17.5-17.5v-35   C200.499,10.645,192.607,2.754,182.999,2.754z M238.142,2.754c-9.609,0-17.5,7.891-17.5,17.5v35c0,9.609,7.891,17.5,17.5,17.5   c9.609,0,17.5-7.891,17.5-17.5v-35C255.642,10.645,247.75,2.754,238.142,2.754z M17.571,12.754c4.241,0,7.5,3.259,7.5,7.5v35   c0,4.241-3.259,7.5-7.5,7.5s-7.5-3.259-7.5-7.5v-35C10.071,16.012,13.33,12.754,17.571,12.754z M182.999,12.754   c4.241,0,7.5,3.259,7.5,7.5v35c0,4.241-3.259,7.5-7.5,7.5s-7.5-3.259-7.5-7.5v-35C175.499,16.012,178.757,12.754,182.999,12.754z    M238.142,12.754c4.241,0,7.5,3.259,7.5,7.5v35c0,4.241-3.259,7.5-7.5,7.5s-7.5-3.259-7.5-7.5v-35   C230.642,16.012,233.9,12.754,238.142,12.754z M19.925,92.791c-1.275,0.037-2.487,0.56-3.389,1.461l-15,15   c-1.952,1.954-1.949,5.121,0.005,7.072c1.952,1.95,5.115,1.95,7.067,0l6.463-6.463v42.928h-10   c-2.761-0.039-5.032,2.168-5.071,4.929c-0.039,2.761,2.168,5.032,4.929,5.071c0.047,0.001,0.094,0.001,0.141,0h14.182   c0.537,0.088,1.084,0.088,1.621,0h9.197c2.761,0.039,5.032-2.168,5.071-4.929c0.039-2.761-2.168-5.032-4.929-5.071   c-0.047-0.001-0.094-0.001-0.141,0h-5v-55c0-2.762-2.239-5-5.001-5C20.022,92.789,19.973,92.789,19.925,92.791z M130.21,92.791   c-1.275,0.037-2.487,0.56-3.389,1.461l-15,15c-1.976,1.93-2.013,5.095-0.084,7.071c1.93,1.976,5.095,2.013,7.071,0.084   c0.028-0.027,0.056-0.055,0.083-0.083l6.465-6.465v42.93h-10c-2.761-0.039-5.032,2.168-5.071,4.929   c-0.039,2.761,2.168,5.032,4.929,5.071c0.047,0.001,0.094,0.001,0.141,0h14.182c0.537,0.088,1.084,0.088,1.621,0h9.197   c2.761,0.039,5.032-2.168,5.071-4.929c0.039-2.761-2.168-5.032-4.929-5.071c-0.047-0.001-0.094-0.001-0.141,0h-5v-55   c0-2.762-2.239-5-5.001-5C130.307,92.789,130.258,92.789,130.21,92.791z M185.352,92.791c-1.275,0.037-2.487,0.56-3.389,1.461   l-15,15c-1.976,1.93-2.013,5.095-0.084,7.071c1.93,1.976,5.095,2.013,7.071,0.084c0.028-0.027,0.056-0.055,0.083-0.083l6.465-6.465   v42.93h-10c-2.761-0.039-5.032,2.168-5.071,4.929c-0.039,2.761,2.168,5.032,4.929,5.071c0.047,0.001,0.094,0.001,0.141,0h14.182   c0.537,0.088,1.084,0.088,1.621,0h9.197c2.761,0.039,5.032-2.168,5.071-4.929c0.039-2.761-2.168-5.032-4.929-5.071   c-0.047-0.001-0.094-0.001-0.141,0h-5v-55c0-2.762-2.239-5-5.001-5C185.45,92.789,185.401,92.789,185.352,92.791z M72.714,92.824   c-9.609,0-17.5,7.891-17.5,17.5v35c0,9.609,7.891,17.5,17.5,17.5s17.5-7.891,17.5-17.5v-35   C90.214,100.715,82.322,92.824,72.714,92.824z M238.142,92.824c-9.609,0-17.5,7.891-17.5,17.5v35c0,9.609,7.891,17.5,17.5,17.5   c9.609,0,17.5-7.891,17.5-17.5v-35C255.642,100.715,247.75,92.824,238.142,92.824z M72.714,102.824c4.241,0,7.5,3.259,7.5,7.5v35   c0,4.241-3.259,7.5-7.5,7.5s-7.5-3.259-7.5-7.5v-35C65.214,106.082,68.472,102.824,72.714,102.824z M238.142,102.824   c4.241,0,7.5,3.259,7.5,7.5v35c0,4.241-3.259,7.5-7.5,7.5s-7.5-3.259-7.5-7.5v-35C230.642,106.082,233.9,102.824,238.142,102.824z    M19.925,182.861c-1.275,0.037-2.487,0.56-3.389,1.461l-15,15c-1.953,1.953-1.953,5.119,0,7.072s5.119,1.953,7.072,0l6.463-6.463   v42.926h-10c-2.761-0.039-5.032,2.168-5.071,4.929c-0.039,2.761,2.168,5.032,4.929,5.071c0.047,0.001,0.094,0.001,0.141,0h14.182   c0.537,0.088,1.084,0.088,1.621,0h9.197c2.761,0.039,5.032-2.168,5.071-4.929c0.039-2.761-2.168-5.032-4.929-5.071   c-0.047-0.001-0.094-0.001-0.141,0h-5v-55c-0.001-2.762-2.241-4.999-5.003-4.998C20.021,182.859,19.973,182.86,19.925,182.861z    M75.067,182.861c-1.275,0.037-2.487,0.56-3.389,1.461l-15,15c-1.953,1.953-1.953,5.119,0,7.072s5.119,1.953,7.072,0l6.463-6.463   v42.926h-10c-2.761-0.039-5.032,2.168-5.071,4.929c-0.039,2.761,2.168,5.032,4.929,5.071c0.047,0.001,0.094,0.001,0.141,0h14.182   c0.535,0.088,1.08,0.088,1.615,0h9.203c2.761,0.039,5.032-2.168,5.071-4.929c0.039-2.761-2.168-5.032-4.929-5.071   c-0.047-0.001-0.094-0.001-0.141,0h-5v-55c-0.001-2.762-2.241-4.999-5.003-4.998C75.163,182.859,75.115,182.86,75.067,182.861z    M130.21,182.861c-1.275,0.037-2.487,0.56-3.389,1.461l-15,15c-1.976,1.93-2.013,5.095-0.084,7.071   c1.93,1.976,5.095,2.013,7.071,0.084c0.028-0.027,0.056-0.055,0.083-0.083l6.465-6.465v42.928h-10   c-2.761-0.039-5.032,2.168-5.071,4.929c-0.039,2.761,2.168,5.032,4.929,5.071c0.047,0.001,0.094,0.001,0.141,0h14.182   c0.537,0.088,1.084,0.088,1.621,0h9.197c2.761,0.039,5.032-2.168,5.071-4.929c0.039-2.761-2.168-5.032-4.929-5.071   c-0.047-0.001-0.094-0.001-0.141,0h-5v-55c-0.001-2.762-2.241-4.999-5.003-4.998C130.306,182.859,130.258,182.86,130.21,182.861z    M185.352,182.861c-1.275,0.037-2.487,0.56-3.389,1.461l-15,15c-1.976,1.93-2.013,5.095-0.084,7.071   c1.93,1.976,5.095,2.013,7.071,0.084c0.028-0.027,0.056-0.055,0.083-0.083l6.465-6.465v42.928h-10   c-2.761-0.039-5.032,2.168-5.071,4.929c-0.039,2.761,2.168,5.032,4.929,5.071c0.047,0.001,0.094,0.001,0.141,0h14.182   c0.537,0.088,1.084,0.088,1.621,0h9.197c2.761,0.039,5.032-2.168,5.071-4.929c0.039-2.761-2.168-5.032-4.929-5.071   c-0.047-0.001-0.094-0.001-0.141,0h-5v-55c-0.001-2.762-2.241-4.999-5.003-4.998C185.448,182.859,185.4,182.86,185.352,182.861z    M238.142,182.894c-9.609,0-17.5,7.891-17.5,17.5v35c0,9.609,7.891,17.5,17.5,17.5c9.609,0,17.5-7.891,17.5-17.5v-35   C255.642,190.786,247.75,182.894,238.142,182.894z M238.142,192.894c4.241,0,7.5,3.259,7.5,7.5v35c0,4.241-3.259,7.5-7.5,7.5   s-7.5-3.259-7.5-7.5v-35C230.642,196.153,233.9,192.894,238.142,192.894z" transform="matrix(0.2347032129764557 0 0 0.2347032129764557 4 309)" id="L1_14"/><path d="M251.093,37.38c-2.235-3.859-6.357-6.235-10.816-6.235s-8.582,2.376-10.816,6.235L1.684,430.645   c-2.24,3.867-2.245,8.636-0.013,12.507s6.361,6.257,10.83,6.257h455.553c4.469,0,8.598-2.386,10.83-6.257   c2.231-3.871,2.227-8.641-0.014-12.507L251.093,37.38z M34.186,424.409L240.276,68.585l206.091,355.824H34.186L34.186,424.409z" transform="matrix(0.08191664637591003 0.08191664637591002 -0.08191664637591002 0.08191664637591003 301.98810591803226 -31.34267900147958)" id="L1_16"/><path d="M251.093,37.38c-2.235-3.859-6.357-6.235-10.816-6.235s-8.582,2.376-10.816,6.235L1.684,430.645   c-2.24,3.867-2.245,8.636-0.013,12.507s6.361,6.257,10.83,6.257h455.553c4.469,0,8.598-2.386,10.83-6.257   c2.231-3.871,2.227-8.641-0.014-12.507L251.093,37.38z M34.186,424.409L240.276,68.585l206.091,355.824H34.186L34.186,424.409z" transform="matrix(0.10680624064244798 0.0376963203067356 -0.0376963203067356 0.10680624064244798 172.38947605412696 222.28980226280368)" id="L1_17"/><path d="M251.093,37.38c-2.235-3.859-6.357-6.235-10.816-6.235s-8.582,2.376-10.816,6.235L1.684,430.645   c-2.24,3.867-2.245,8.636-0.013,12.507s6.361,6.257,10.83,6.257h455.553c4.469,0,8.598-2.386,10.83-6.257   c2.231-3.871,2.227-8.641-0.014-12.507L251.093,37.38z M34.186,424.409L240.276,68.585l206.091,355.824H34.186L34.186,424.409z" transform="matrix(0.1248558983206749 0 0 0.1248558983206749 15 147.0000008992307)" id="L1_18"/></defs><g fi:class="KUsePattern"><pattern id="pattern_L1_5" width="350" height="350" patternUnits="userSpaceOnUse"><use xlink:href="#L1_5" x="-350" y="-350"/><use xlink:href="#L1_5" x="0" y="-350"/><use xlink:href="#L1_5" x="350" y="-350"/><use xlink:href="#L1_5" x="-350" y="0"/><use xlink:href="#L1_5" x="0" y="0"/><use xlink:href="#L1_5" x="350" y="0"/><use xlink:href="#L1_5" x="-350" y="350"/><use xlink:href="#L1_5" x="0" y="350"/><use xlink:href="#L1_5" x="350" y="350"/></pattern><rect x="0" y="0" width="100%" height="100%" fill="url(#pattern_L1_5)"/></g><g fi:class="KUsePattern"><pattern id="pattern_L1_7" width="350" height="350" patternUnits="userSpaceOnUse"><use xlink:href="#L1_7" x="-350" y="-350"/><use xlink:href="#L1_7" x="0" y="-350"/><use xlink:href="#L1_7" x="350" y="-350"/><use xlink:href="#L1_7" x="-350" y="0"/><use xlink:href="#L1_7" x="0" y="0"/><use xlink:href="#L1_7" x="350" y="0"/><use xlink:href="#L1_7" x="-350" y="350"/><use xlink:href="#L1_7" x="0" y="350"/><use xlink:href="#L1_7" x="350" y="350"/></pattern><rect x="0" y="0" width="100%" height="100%" fill="url(#pattern_L1_7)"/></g><g fi:class="KUsePattern"><pattern id="pattern_L1_9" width="350" height="350" patternUnits="userSpaceOnUse"><use xlink:href="#L1_9" x="-350" y="-350"/><use xlink:href="#L1_9" x="0" y="-350"/><use xlink:href="#L1_9" x="350" y="-350"/><use xlink:href="#L1_9" x="-350" y="0"/><use xlink:href="#L1_9" x="0" y="0"/><use xlink:href="#L1_9" x="350" y="0"/><use xlink:href="#L1_9" x="-350" y="350"/><use xlink:href="#L1_9" x="0" y="350"/><use xlink:href="#L1_9" x="350" y="350"/></pattern><rect x="0" y="0" width="100%" height="100%" fill="url(#pattern_L1_9)"/></g><g fi:class="KUsePattern"><pattern id="pattern_L1_11" width="350" height="350" patternUnits="userSpaceOnUse"><use xlink:href="#L1_11" x="-350" y="-350"/><use xlink:href="#L1_11" x="0" y="-350"/><use xlink:href="#L1_11" x="350" y="-350"/><use xlink:href="#L1_11" x="-350" y="0"/><use xlink:href="#L1_11" x="0" y="0"/><use xlink:href="#L1_11" x="350" y="0"/><use xlink:href="#L1_11" x="-350" y="350"/><use xlink:href="#L1_11" x="0" y="350"/><use xlink:href="#L1_11" x="350" y="350"/></pattern><rect x="0" y="0" width="100%" height="100%" fill="url(#pattern_L1_11)"/></g><g fi:class="KUsePattern"><pattern id="pattern_L1_13" width="350" height="350" patternUnits="userSpaceOnUse"><use xlink:href="#L1_13" x="-350" y="-350"/><use xlink:href="#L1_13" x="0" y="-350"/><use xlink:href="#L1_13" x="350" y="-350"/><use xlink:href="#L1_13" x="-350" y="0"/><use xlink:href="#L1_13" x="0" y="0"/><use xlink:href="#L1_13" x="350" y="0"/><use xlink:href="#L1_13" x="-350" y="350"/><use xlink:href="#L1_13" x="0" y="350"/><use xlink:href="#L1_13" x="350" y="350"/></pattern><rect x="0" y="0" width="100%" height="100%" fill="url(#pattern_L1_13)"/></g><g fi:class="KUsePattern"><pattern id="pattern_L1_14" width="350" height="350" patternUnits="userSpaceOnUse"><use xlink:href="#L1_14" x="-350" y="-350"/><use xlink:href="#L1_14" x="0" y="-350"/><use xlink:href="#L1_14" x="350" y="-350"/><use xlink:href="#L1_14" x="-350" y="0"/><use xlink:href="#L1_14" x="0" y="0"/><use xlink:href="#L1_14" x="350" y="0"/><use xlink:href="#L1_14" x="-350" y="350"/><use xlink:href="#L1_14" x="0" y="350"/><use xlink:href="#L1_14" x="350" y="350"/></pattern><rect x="0" y="0" width="100%" height="100%" fill="url(#pattern_L1_14)"/></g><g fi:class="KUsePattern"><pattern id="pattern_L1_16" width="350" height="350" patternUnits="userSpaceOnUse"><use xlink:href="#L1_16" x="-350" y="-350"/><use xlink:href="#L1_16" x="0" y="-350"/><use xlink:href="#L1_16" x="350" y="-350"/><use xlink:href="#L1_16" x="-350" y="0"/><use xlink:href="#L1_16" x="0" y="0"/><use xlink:href="#L1_16" x="350" y="0"/><use xlink:href="#L1_16" x="-350" y="350"/><use xlink:href="#L1_16" x="0" y="350"/><use xlink:href="#L1_16" x="350" y="350"/></pattern><rect x="0" y="0" width="100%" height="100%" fill="url(#pattern_L1_16)"/></g><g fi:class="KUsePattern"><pattern id="pattern_L1_17" width="350" height="350" patternUnits="userSpaceOnUse"><use xlink:href="#L1_17" x="-350" y="-350"/><use xlink:href="#L1_17" x="0" y="-350"/><use xlink:href="#L1_17" x="350" y="-350"/><use xlink:href="#L1_17" x="-350" y="0"/><use xlink:href="#L1_17" x="0" y="0"/><use xlink:href="#L1_17" x="350" y="0"/><use xlink:href="#L1_17" x="-350" y="350"/><use xlink:href="#L1_17" x="0" y="350"/><use xlink:href="#L1_17" x="350" y="350"/></pattern><rect x="0" y="0" width="100%" height="100%" fill="url(#pattern_L1_17)"/></g><g fi:class="KUsePattern"><pattern id="pattern_L1_18" width="350" height="350" patternUnits="userSpaceOnUse"><use xlink:href="#L1_18" x="-350" y="-350"/><use xlink:href="#L1_18" x="0" y="-350"/><use xlink:href="#L1_18" x="350" y="-350"/><use xlink:href="#L1_18" x="-350" y="0"/><use xlink:href="#L1_18" x="0" y="0"/><use xlink:href="#L1_18" x="350" y="0"/><use xlink:href="#L1_18" x="-350" y="350"/><use xlink:href="#L1_18" x="0" y="350"/><use xlink:href="#L1_18" x="350" y="350"/></pattern><rect x="0" y="0" width="100%" height="100%" fill="url(#pattern_L1_18)"/></g></svg>
